<?xml version="1.0" encoding="UTF-8" standalone="no"?>
<!DOCTYPE svg PUBLIC "-//W3C//DTD SVG 1.1//EN" "http://www.w3.org/Graphics/SVG/1.1/DTD/svg11.dtd">
<svg width="100%" height="100%" viewBox="0 0 2500 2500" version="1.1" xmlns="http://www.w3.org/2000/svg" xmlns:xlink="http://www.w3.org/1999/xlink" xml:space="preserve" xmlns:serif="http://www.serif.com/" style="fill-rule:evenodd;clip-rule:evenodd;stroke-linejoin:round;stroke-miterlimit:2;">
    <g transform="matrix(1,0,0,1,-8,0)">
        <path d="M677.605,1704.72L677.605,1733.93C677.605,1744.86 677.863,1752.02 678.375,1755.4C678.887,1758.79 680.27,1761.3 682.523,1762.94C684.781,1764.58 689.016,1765.4 695.234,1765.4L699.848,1765.4L699.848,1770.11L636.195,1770.11L636.195,1765.4L639.887,1765.4C645.828,1765.4 649.945,1764.64 652.234,1763.14C654.527,1761.64 655.977,1759.3 656.594,1756.12C657.207,1752.94 657.516,1745.55 657.516,1733.93L657.516,1665.77C657.516,1654.69 657.207,1647.56 656.594,1644.34C655.977,1641.13 654.609,1638.91 652.492,1637.68C650.375,1636.45 645.797,1635.84 638.758,1635.84L636.195,1635.84L636.195,1631.12L653.621,1630.51C667.559,1630.03 678.426,1629.79 686.215,1629.79C700.566,1629.79 711.617,1630.91 719.375,1633.17C727.129,1635.43 733.484,1639.43 738.441,1645.16C743.395,1650.9 745.871,1658.15 745.871,1666.89C745.871,1674.48 744.18,1681.18 740.797,1686.98C737.414,1692.79 732.563,1697.2 726.242,1700.21C719.922,1703.22 708.801,1704.72 692.879,1704.72L677.605,1704.72ZM677.605,1699.59L687.547,1699.59C695.543,1699.59 702,1698.79 706.922,1697.18C711.84,1695.58 715.941,1692.21 719.223,1687.09C722.5,1681.96 724.141,1675.64 724.141,1668.12C724.141,1656.64 721.32,1648.22 715.684,1642.86C710.047,1637.49 700.906,1634.81 688.266,1634.81C683.617,1634.81 680.066,1634.95 677.605,1635.22L677.605,1699.59" style="fill-rule:nonzero;"/>
    </g>
    <g transform="matrix(1,0,0,1,-11,0)">
        <path d="M820.672,1635.84L820.672,1631.12L884.223,1631.12L884.223,1635.84L881.25,1635.84C874.418,1635.84 869.941,1636.4 867.824,1637.53C865.703,1638.66 864.285,1640.76 863.57,1643.83C862.852,1646.91 862.492,1654.22 862.492,1665.77L862.492,1733.93C862.492,1744.86 862.75,1752.02 863.262,1755.4C863.773,1758.79 865.141,1761.3 867.359,1762.94C869.582,1764.58 873.836,1765.4 880.121,1765.4L884.223,1765.4L884.223,1770.11L820.672,1770.11L820.672,1765.4L824.773,1765.4C830.719,1765.4 834.836,1764.64 837.125,1763.14C839.414,1761.64 840.863,1759.3 841.48,1756.12C842.094,1752.94 842.402,1745.55 842.402,1733.93L842.402,1665.77C842.402,1654.69 842.094,1647.56 841.48,1644.34C840.863,1641.13 839.496,1638.91 837.379,1637.68C835.262,1636.45 830.684,1635.84 823.645,1635.84L820.672,1635.84" style="fill-rule:nonzero;"/>
    </g>
    <g transform="matrix(1,0,0,1,3,0)">
        <path d="M1082.44,1729.22L1081.41,1770.11L963.328,1770.11L963.328,1765.4L967.43,1765.4C973.375,1765.4 977.492,1764.64 979.781,1763.14C982.07,1761.64 983.539,1759.3 984.188,1756.12C984.836,1752.94 985.16,1745.55 985.16,1733.93L985.16,1665.77C985.16,1654.69 984.836,1647.56 984.188,1644.34C983.539,1641.13 982.172,1638.91 980.09,1637.68C978.004,1636.45 973.441,1635.84 966.402,1635.84L963.328,1635.84L963.328,1631.12L1030.06,1631.12L1030.06,1635.84L1023.91,1635.84C1017.07,1635.84 1012.6,1636.4 1010.48,1637.53C1008.36,1638.66 1006.94,1640.76 1006.23,1643.83C1005.51,1646.91 1005.15,1654.22 1005.15,1665.77L1005.15,1738.54C1005.15,1748.59 1005.42,1754.88 1005.97,1757.4C1006.52,1759.93 1008,1761.89 1010.43,1763.3C1012.85,1764.69 1018.07,1765.4 1026.06,1765.4L1036.62,1765.4C1045.16,1765.4 1051.5,1764.64 1055.63,1763.14C1059.77,1761.64 1063.69,1758.36 1067.42,1753.3C1071.14,1748.25 1074.54,1740.22 1077.62,1729.22L1082.44,1729.22" style="fill-rule:nonzero;"/>
    </g>
    <path d="M1242.62,1718.86L1189.83,1718.86L1186.24,1727.68C1180.91,1740.46 1178.25,1748.79 1178.25,1752.69C1178.25,1756.86 1179.67,1760.02 1182.5,1762.17C1185.34,1764.32 1188.98,1765.4 1193.42,1765.4L1193.42,1770.11L1152.11,1770.11L1152.11,1765.4C1158.26,1764.44 1162.84,1762.27 1165.85,1758.89C1168.85,1755.51 1172.48,1748.38 1176.71,1737.52C1177.05,1736.49 1178.69,1732.53 1181.63,1725.63L1222.02,1629.18L1226.02,1629.18L1272.45,1739.57L1278.8,1754.12C1280.24,1757.4 1282.17,1759.98 1284.59,1761.86C1287.02,1763.74 1290.66,1764.92 1295.51,1765.4L1295.51,1770.11L1240.88,1770.11L1240.88,1765.4C1247.57,1765.4 1252.1,1764.9 1254.46,1763.91C1256.82,1762.92 1257.99,1760.96 1257.99,1758.02C1257.99,1756.52 1256.42,1752.04 1253.28,1744.59L1242.62,1718.86ZM1240.88,1714.25L1216.28,1655L1191.78,1714.25L1240.88,1714.25" style="fill-rule:nonzero;"/>
    <path d="M1356.47,1664.54L1351.76,1664.54L1352.48,1631.12L1487.37,1631.12L1488.09,1664.54L1483.68,1664.54C1482.11,1655.38 1479.95,1648.77 1477.22,1644.7C1474.49,1640.64 1471.55,1638.14 1468.41,1637.22C1465.26,1636.3 1459.9,1635.84 1452.31,1635.84L1429.97,1635.84L1429.97,1733.93C1429.97,1744.8 1430.22,1751.94 1430.74,1755.35C1431.25,1758.77 1432.63,1761.3 1434.89,1762.94C1437.14,1764.58 1441.38,1765.4 1447.6,1765.4L1454.36,1765.4L1454.36,1770.11L1385.07,1770.11L1385.07,1765.4L1392.25,1765.4C1398.19,1765.4 1402.31,1764.64 1404.6,1763.14C1406.89,1761.64 1408.36,1759.3 1409.01,1756.12C1409.66,1752.94 1409.98,1745.55 1409.98,1733.93L1409.98,1635.84L1389.38,1635.84C1380.43,1635.84 1374.41,1636.26 1371.34,1637.12C1368.26,1637.97 1365.38,1640.55 1362.68,1644.86C1359.98,1649.16 1357.91,1655.72 1356.47,1664.54" style="fill-rule:nonzero;"/>
    <path d="M1680.56,1726.86L1685.48,1726.86L1682.51,1770.11L1567.4,1770.11L1567.4,1765.4L1570.27,1765.4C1577.17,1765.4 1581.63,1764.48 1583.64,1762.63C1585.66,1760.79 1586.94,1758.44 1587.49,1755.61C1588.03,1752.77 1588.31,1745.55 1588.31,1733.93L1588.31,1665.77C1588.31,1655.18 1588.02,1648.2 1587.44,1644.86C1586.86,1641.51 1585.52,1639.17 1583.44,1637.84C1581.35,1636.5 1576.96,1635.84 1570.27,1635.84L1570.27,1631.12L1669.59,1631.12L1672.87,1665.77L1668.05,1665.77C1665.87,1656.06 1663.18,1649.18 1660.01,1645.11C1656.83,1641.05 1653.05,1638.48 1648.68,1637.43C1644.31,1636.37 1637.27,1635.84 1627.56,1635.84L1608.29,1635.84L1608.29,1694.16L1623.06,1694.16C1629.82,1694.16 1634.55,1693.58 1637.25,1692.42C1639.95,1691.25 1641.73,1689.5 1642.58,1687.14C1643.44,1684.78 1643.86,1680.18 1643.86,1673.35L1648.68,1673.35L1648.68,1720.91L1643.86,1720.91C1643.86,1713.19 1643.21,1708.02 1641.92,1705.38C1640.62,1702.75 1638.72,1701.04 1636.23,1700.26C1633.73,1699.47 1629.51,1699.08 1623.57,1699.08L1608.29,1699.08L1608.29,1731.98C1608.29,1748.45 1609.35,1758.14 1611.47,1761.04C1613.59,1763.94 1619.3,1765.4 1628.59,1765.4L1638.94,1765.4C1646.25,1765.4 1652.27,1764.46 1656.98,1762.58C1661.7,1760.7 1666.19,1756.84 1670.46,1751C1674.73,1745.15 1678.1,1737.11 1680.56,1726.86" style="fill-rule:nonzero;"/>
    <path d="M1771.86,1768.68L1771.86,1723.99L1776.99,1723.99C1782.8,1753.1 1796.56,1767.65 1818.3,1767.65C1828.07,1767.65 1835.63,1764.87 1841,1759.3C1846.36,1753.73 1849.05,1747.49 1849.05,1740.59C1849.05,1733.62 1846.69,1727.78 1841.97,1723.07C1837.26,1718.42 1828.65,1713.43 1816.14,1708.1C1805,1703.32 1796.6,1699.13 1790.93,1695.54C1785.26,1691.96 1780.83,1687.29 1777.65,1681.55C1774.48,1675.81 1772.89,1669.69 1772.89,1663.2C1772.89,1653.3 1776.32,1645.04 1783.19,1638.45C1790.06,1631.86 1798.75,1628.56 1809.27,1628.56C1815.15,1628.56 1820.69,1629.52 1825.88,1631.43C1831.07,1633.34 1836.4,1637.31 1841.87,1643.32C1845.01,1639.56 1846.79,1635.5 1847.2,1631.12L1851.71,1631.12L1851.71,1667.51L1847.2,1667.51C1844.6,1656.92 1840.01,1648.58 1833.41,1642.5C1826.82,1636.42 1819.18,1633.38 1810.51,1633.38C1802.24,1633.38 1796.17,1635.61 1792.31,1640.09C1788.45,1644.57 1786.52,1649.47 1786.52,1654.8C1786.52,1661.22 1788.94,1666.66 1793.8,1671.1C1798.58,1675.61 1807.22,1680.66 1819.73,1686.27C1831.69,1691.6 1840.38,1695.89 1845.82,1699.13C1851.25,1702.38 1855.61,1706.87 1858.89,1712.61C1862.17,1718.35 1863.81,1724.98 1863.81,1732.5C1863.81,1744.39 1859.84,1754.06 1851.92,1761.5C1843.99,1768.95 1833.4,1772.68 1820.14,1772.68C1804.9,1772.68 1792.19,1766.83 1782.01,1755.15C1779.75,1758.36 1778.08,1762.87 1776.99,1768.68L1771.86,1768.68" style="fill-rule:nonzero;"/>
    <path d="M906.641,832.578C923.652,833.422 959.977,816.949 969.617,802.449C1003.67,751.219 1004.53,620.512 1099.88,634.301C1118.65,637.012 1142.42,654.5 1144.37,674.93C1144.85,679.969 1136.55,702.699 1141.25,705.449C1166.23,720.07 1198.81,673.852 1251.05,692.379C1304.25,711.262 1327.6,773.91 1353.27,781.84C1374.83,788.5 1386.97,759.219 1405.78,750.289C1433.71,737.031 1463.58,738.352 1493.41,742.691C1619.46,761.02 1654.32,843.469 1749.81,899.75C1818.5,940.238 1905.73,955.199 1937.24,1038.41C1944.21,1056.81 1948.24,1076.57 1949.06,1096.23C1951.97,1166.03 1890.66,1214.96 1823.34,1214.64C1774.17,1214.41 1724.38,1197.81 1676.63,1187.75C1661.36,1184.54 1573.74,1143.43 1568.54,1169.36C1566.42,1179.89 1589.47,1193.82 1591.53,1196.24C1606.02,1213.3 1602.33,1233.3 1603.77,1255.64C1607.32,1310.89 1601.95,1364.03 1603.77,1419.44C1604.67,1446.8 1615.26,1488.05 1599.88,1512.85C1569.91,1561.16 1432.27,1553.7 1385.67,1536.67C1359.68,1527.18 1424.21,1506.97 1439.95,1500.56C1460.39,1492.23 1484.13,1471.74 1506.5,1470.63C1520.27,1469.95 1543.17,1499.4 1553.32,1478.59C1561.04,1462.77 1563.32,1439.31 1557.77,1423.19C1531.83,1347.76 1532.16,1285.72 1493.41,1211.99C1482.11,1190.48 1482.45,1176.25 1456.64,1169.36C1410.19,1156.94 1362.75,1190.23 1323.7,1208.01C1294.78,1221.17 1262.18,1230.42 1230.7,1234.37C1128.97,1247.14 1031.98,1211.74 931.699,1207.21C862.277,1204.08 852.016,1268.85 805.27,1268.13C767.199,1267.54 752.906,1221.73 720.031,1210.19C698.762,1202.73 677.531,1213.99 656.109,1211.99C633.688,1209.89 614.086,1196.76 593.363,1189.38C581.949,1185.31 557.879,1183.18 551.555,1170.77C541.988,1151.99 631.117,1158.12 640.688,1158.51C699.859,1160.91 757.051,1138.79 815.766,1145.09C905.266,1154.68 1000.73,1161.24 1102.33,1132.71C1157.91,1117.09 1225.8,1120.21 1279.79,1096.23C1353,1063.72 1360.33,1061.79 1379.5,1046.82C1398.58,1031.92 1378.49,1003.92 1330.6,961.309C1320,951.891 1340.94,916.41 1323.7,912.16C1313.18,909.57 1297.91,958.219 1293.62,961.309C1269.77,978.5 1250.76,958.809 1238.4,950.109C1217.27,935.262 1186.56,949.371 1178.62,950.109C1165.54,951.34 1179.07,917.27 1135.03,904.48C1126.96,902.129 1097.92,879.012 1098.41,857.969C1100.74,757.25 1138.19,726.449 1124.8,723.879C1113.73,721.738 1102.12,746.238 1073.83,781.84C1060.38,798.762 1050.89,808.238 1030.94,832.578C1007.44,861.262 935.238,847.09 906.641,832.578"/>
    <path d="M1944.64,1523.97L555.363,1523.97L555.363,1549.66L1944.64,1549.66L1944.64,1523.97"/>
</svg>
