<?xml version="1.0" encoding="UTF-8" standalone="no"?>
<!DOCTYPE svg PUBLIC "-//W3C//DTD SVG 1.1//EN" "http://www.w3.org/Graphics/SVG/1.1/DTD/svg11.dtd">
<svg width="100%" height="100%" viewBox="0 0 596 420" version="1.1" xmlns="http://www.w3.org/2000/svg" xmlns:xlink="http://www.w3.org/1999/xlink" xml:space="preserve" xmlns:serif="http://www.serif.com/" style="fill-rule:evenodd;clip-rule:evenodd;stroke-linejoin:round;stroke-miterlimit:2;">
    <g transform="matrix(0.24,0,0,0.24,0,0)">
        <g transform="matrix(2.40636,0,0,2.40636,-587.441,52.7795)">
            <path d="M1160.2,47.3C1157.3,51.1 1163.6,65.8 1165.2,72.5C1166.9,79.2 1156.2,110.6 1155.7,120.1C1155.1,129.6 1155.7,136.3 1155.7,136.3C1155.7,136.3 1136.1,128.5 1126,142.5C1126,142.5 1118.7,140.3 1116.5,149.2C1114.3,158.2 1124.9,158.2 1124.9,158.2C1124.9,158.2 1131.1,172.8 1137.8,173.3C1137.8,173.3 1140,178.3 1137.2,181.1C1134.4,183.9 1131.6,178.3 1128.8,186.1C1126,193.9 1146.2,227.5 1143.4,246.5C1140.6,265.6 1123.2,277.4 1120.4,297.5C1117.6,317.7 1128.2,313.7 1128.2,326.6C1128.2,339.5 1132.1,358 1123.2,377.6C1114.2,397.2 1122.1,423 1125.4,440.3C1128.8,457.7 1127.6,475.6 1126.5,482.3C1125.4,489 1170.8,488 1176.4,485.7C1182,483.4 1173.6,476.1 1162.4,475.6C1151.2,475 1140.6,464.4 1141.1,451.5C1141.7,438.6 1140.5,405.6 1143.3,401.1C1146.1,396.6 1152.8,379.8 1156.2,361.9C1159.6,344 1165.2,312 1164.6,302C1164,291.9 1178.2,278.5 1178.1,265C1178,251.6 1177.1,232 1178.1,225.2C1179.1,218.5 1182.5,212.3 1174.6,203.9C1166.8,195.5 1157.8,190.5 1157.8,186C1157.8,181.5 1157.2,173.7 1161.7,172C1166.2,170.3 1167.1,170.1 1169.4,167.5C1171.6,164.9 1166.8,156.3 1169.8,152.6C1172.8,148.9 1168.6,149.4 1167.1,147.9C1165.6,146.4 1172.4,112.6 1172.4,101.4C1172.4,90.2 1170.9,83.8 1173.5,79.4C1176.1,74.9 1175.7,67.5 1172,56.6C1168.4,46 1164.3,41.9 1160.2,47.3Z" style="fill-rule:nonzero;"/>
        </g>
        <g transform="matrix(2.42464,0,0,2.42464,-272.487,65.6752)">
            <path d="M408.7,377.2C410.6,367.5 395.6,337.8 371,310.6C346.4,283.4 325.1,268.1 315,267.8C304.9,267.4 272.1,268.2 260.9,272.7C249.7,277.2 219.1,314.9 216.8,325.4C214.6,335.9 206.7,338.5 206.7,338.5C206.7,338.5 194.8,328.8 177.6,345.2C160.4,361.6 167.1,382.5 185.1,389.6C185.1,389.6 183.2,395.9 176.9,403.8C170.6,411.6 161.6,451.6 162.3,463.2C163,474.8 182.8,487.1 191.1,489C199.3,490.9 212,492.7 210.9,489C209.8,485.3 203.4,480.4 197.8,475.6C192.2,470.7 177.6,470 176.9,464.8C176.2,459.6 177.3,443.5 181,441.3C184.7,439.1 181.7,449.1 184.7,449.5C187.7,449.9 216.4,452.1 219.8,449.5C223.2,446.9 208.2,439 194.8,438.3C185.8,437.2 195.2,421.9 199.3,417.4C203.4,412.9 211.2,400.6 213.1,392.8C215,385 214.2,381.2 223.6,374.5C232.9,367.8 249,349.5 253.5,342C258,334.5 280.8,309.1 290.1,311C299.4,312.9 323.7,331.5 333.8,331.9C343.9,332.3 352.5,351.3 351.7,355.1C351,358.8 320,402.9 313.2,419C306.5,435.1 311.7,433.2 316.9,433.6C322.1,434 344.2,430.2 346.8,432.1C349.4,434 329.2,464.2 328.9,469.1C328.5,474 341.7,478.1 351.7,475.4C361.7,472.8 377.4,481.4 388.6,478.8C399.8,476.2 377,468.3 366.6,464.2C356.1,460.1 357.6,453 361.4,446.3C365,439.2 406.8,386.9 408.7,377.2ZM350.1,428.8C347.9,429.5 342.3,422.1 337,421.3C331.8,420.6 328.8,419.1 330.7,413.1C332.6,407.1 361.4,366.8 365.8,368.3C370.1,369.8 377.8,377.1 378.9,379.4C380,381.7 361.7,404.1 359.1,409.4C356.4,414.6 352.3,428 350.1,428.8Z" style="fill-rule:nonzero;"/>
        </g>
        <g transform="matrix(2.42464,0,0,2.42464,-442.372,53.8185)">
            <path d="M719,102.2C721.3,110 711.7,127.4 714.5,130.2C717.3,133 723.5,122.9 726.8,124.6C730.2,126.3 728.3,129.6 714.1,145.3C699.9,161 697.1,172.7 696.5,178.3C695.9,183.9 679.1,204.6 673.5,209.7C667.9,214.7 653.3,234.3 647.2,242.2C641,250 645,260.7 647.2,262.4C649.4,264.1 651.7,273 650.6,277C649.5,280.9 646.8,290.4 643.9,295.5C641,300.5 624.8,339.2 616.4,348.2C613.6,353.8 673.9,384 672.3,400.9C671.9,411.5 617.9,454.7 616.3,460.8C614.7,467 634.3,464.7 636,471.4C636,471.4 642.2,473.1 641,483.7C641,491 596.7,483.1 591.1,483.7C585.5,484.3 591.1,474.7 591.1,474.7C591.1,474.7 583.3,475.3 588.6,465.2C593.9,455.1 607.9,432.2 633.1,409.2C636.5,405.3 577.1,378.4 566.4,373.9C555.8,369.4 551.3,352.1 560.2,340.3C569.2,328.5 582.6,320.7 593.2,308.4C603.8,296.1 614.5,254.6 615.6,242.3C618.4,232.8 625.7,235.6 625.7,231.1C625.7,226.6 611.1,227.7 607.2,214.9C607.2,214.9 592.1,214.9 593.8,202.6C595.5,190.3 605.6,186.9 612.8,193.6C612.8,193.6 620.6,183.5 633,184.1C645.3,184.7 650.9,191.9 652.6,201.5C654.8,206 660.4,204.3 662.7,198.1C664.9,191.9 675.6,169.5 687.3,157.2C699.1,144.9 705.8,125.8 708.6,117.4C711.4,109 717.1,95.6 719,102.2Z" style="fill-rule:nonzero;"/>
        </g>
        <g transform="matrix(2.42464,0,0,2.42464,-589.678,54.3895)">
            <path d="M857.5,255.7C846.6,264.4 846.9,278.9 854.7,293.6C862.5,308.3 867,336.3 869.8,350.9C872.6,365.5 875.4,378.3 877.1,391.2C878.8,404.1 882.7,432.7 888.3,445C893.9,457.3 891.1,476.4 892.8,483.1C894.5,489.8 942.1,482.5 944.9,483.1C947.7,483.7 944.3,471.3 938.7,470.2C933.1,469.1 918,464 914.6,459C911.2,454 901.7,443.9 903.4,427.6C905.1,411.4 906.2,358.1 906.8,353.7C907.4,349.2 917.4,354.8 919.7,360.4C921.9,366 913.5,366.6 913.5,375.5C913.5,384.5 906.8,397.3 919.1,405.7C931.4,414.1 942.6,411.9 942.6,411.9C942.6,411.9 946,417.5 953.2,416.4C960.4,415.3 957.1,402.4 957.1,402.4C957.1,402.4 963.7,394 957.9,378.9C957.9,378.9 955.1,367.1 960.3,363.8C965.5,360.5 972.3,352 973.4,344.2C974.5,336.4 970.6,314 968.4,307.8C966.2,301.6 944.3,275.3 931.4,264.7C918.6,254 882.7,235.5 857.5,255.7Z" style="fill-rule:nonzero;"/>
        </g>
    </g>
</svg>
