<?xml version="1.0" encoding="utf-8"?>
<!-- Generator: Adobe Illustrator 19.0.0, SVG Export Plug-In . SVG Version: 6.00 Build 0)  -->
<svg version="1.1" xmlns="http://www.w3.org/2000/svg" xmlns:xlink="http://www.w3.org/1999/xlink" x="0px" y="0px"
	 viewBox="0 0 1400 980" style="enable-background:new 0 0 1400 980;" xml:space="preserve">
<style type="text/css">
	.st0{fill:#F1F2F2;}
	.st1{fill:#726658;}
</style>
<g id="_x31_">
	<ellipse class="st0" cx="277.7" cy="465.1" rx="182" ry="38"/>
	<ellipse class="st0" cx="288.7" cy="897.1" rx="155" ry="38"/>
	<ellipse class="st0" cx="676.7" cy="897.1" rx="178" ry="38"/>
	<ellipse class="st0" cx="1093.7" cy="897.1" rx="160" ry="38"/>
	<ellipse class="st0" cx="620.7" cy="473.1" rx="98" ry="24"/>
	<ellipse class="st0" cx="900.5" cy="475.1" rx="98" ry="24"/>
	<ellipse class="st0" cx="1147.7" cy="475.1" rx="98" ry="24"/>
	<path d="M408.7,377.2c1.9-9.7-13.1-39.4-37.7-66.6c-24.6-27.2-45.9-42.5-56-42.8c-10.1-0.4-42.9,0.4-54.1,4.9
		c-11.2,4.5-41.8,42.2-44.1,52.7c-2.2,10.5-10.1,13.1-10.1,13.1s-11.9-9.7-29.1,6.7c-17.2,16.4-10.5,37.3,7.5,44.4
		c0,0-1.9,6.3-8.2,14.2c-6.3,7.8-15.3,47.8-14.6,59.4c0.7,11.6,20.5,23.9,28.8,25.8c8.2,1.9,20.9,3.7,19.8,0
		c-1.1-3.7-7.5-8.6-13.1-13.4c-5.6-4.9-20.2-5.6-20.9-10.8c-0.7-5.2,0.4-21.3,4.1-23.5c3.7-2.2,0.7,7.8,3.7,8.2
		c3,0.4,31.7,2.6,35.1,0c3.4-2.6-11.6-10.5-25-11.2c-9-1.1,0.4-16.4,4.5-20.9c4.1-4.5,11.9-16.8,13.8-24.6
		c1.9-7.8,1.1-11.6,10.5-18.3c9.3-6.7,25.4-25,29.9-32.5c4.5-7.5,27.3-32.9,36.6-31c9.3,1.9,33.6,20.5,43.7,20.9
		c10.1,0.4,18.7,19.4,17.9,23.2c-0.7,3.7-31.7,47.8-38.5,63.9c-6.7,16.1-1.5,14.2,3.7,14.6c5.2,0.4,27.3-3.4,29.9-1.5
		c2.6,1.9-17.6,32.1-17.9,37c-0.4,4.9,12.8,9,22.8,6.3c10-2.6,25.7,6,36.9,3.4c11.2-2.6-11.6-10.5-22-14.6
		c-10.5-4.1-9-11.2-5.2-17.9C365,439.2,406.8,386.9,408.7,377.2z M350.1,428.8c-2.2,0.7-7.8-6.7-13.1-7.5c-5.2-0.7-8.2-2.2-6.3-8.2
		c1.9-6,30.7-46.3,35.1-44.8c4.3,1.5,12,8.8,13.1,11.1s-17.2,24.7-19.8,30C356.4,414.6,352.3,428,350.1,428.8z"/>
	<path d="M719,102.2c2.3,7.8-7.3,25.2-4.5,28c2.8,2.8,9-7.3,12.3-5.6c3.4,1.7,1.5,5-12.7,20.7c-14.2,15.7-17,27.4-17.6,33
		c-0.6,5.6-17.4,26.3-23,31.4c-5.6,5-20.2,24.6-26.3,32.5c-6.2,7.8-2.2,18.5,0,20.2c2.2,1.7,4.5,10.6,3.4,14.6
		c-1.1,3.9-3.8,13.4-6.7,18.5c-2.9,5-19.1,43.7-27.5,52.7c-2.8,5.6,57.5,35.8,55.9,52.7c-0.4,10.6-54.4,53.8-56,59.9
		c-1.6,6.2,18,3.9,19.7,10.6c0,0,6.2,1.7,5,12.3c0,7.3-44.3-0.6-49.9,0c-5.6,0.6,0-9,0-9s-7.8,0.6-2.5-9.5c5.3-10.1,19.3-33,44.5-56
		c3.4-3.9-56-30.8-66.7-35.3c-10.6-4.5-15.1-21.8-6.2-33.6c9-11.8,22.4-19.6,33-31.9c10.6-12.3,21.3-53.8,22.4-66.1
		c2.8-9.5,10.1-6.7,10.1-11.2c0-4.5-14.6-3.4-18.5-16.2c0,0-15.1,0-13.4-12.3c1.7-12.3,11.8-15.7,19-9c0,0,7.8-10.1,20.2-9.5
		c12.3,0.6,17.9,7.8,19.6,17.4c2.2,4.5,7.8,2.8,10.1-3.4c2.2-6.2,12.9-28.6,24.6-40.9c11.8-12.3,18.5-31.4,21.3-39.8
		S717.1,95.6,719,102.2z"/>
	<path d="M857.5,255.7c-10.9,8.7-10.6,23.2-2.8,37.9c7.8,14.7,12.3,42.7,15.1,57.3c2.8,14.6,5.6,27.4,7.3,40.3
		c1.7,12.9,5.6,41.5,11.2,53.8c5.6,12.3,2.8,31.4,4.5,38.1c1.7,6.7,49.3-0.6,52.1,0c2.8,0.6-0.6-11.8-6.2-12.9
		c-5.6-1.1-20.7-6.2-24.1-11.2c-3.4-5-12.9-15.1-11.2-31.4c1.7-16.2,2.8-69.5,3.4-73.9c0.6-4.5,10.6,1.1,12.9,6.7
		c2.2,5.6-6.2,6.2-6.2,15.1c0,9-6.7,21.8,5.6,30.2c12.3,8.4,23.5,6.2,23.5,6.2s3.4,5.6,10.6,4.5s3.9-14,3.9-14s6.6-8.4,0.8-23.5
		c0,0-2.8-11.8,2.4-15.1s12-11.8,13.1-19.6c1.1-7.8-2.8-30.2-5-36.4c-2.2-6.2-24.1-32.5-37-43.1C918.6,254,882.7,235.5,857.5,255.7z
		"/>
	<path d="M1160.2,47.3c-2.9,3.8,3.4,18.5,5,25.2c1.7,6.7-9,38.1-9.5,47.6c-0.6,9.5,0,16.2,0,16.2s-19.6-7.8-29.7,6.2
		c0,0-7.3-2.2-9.5,6.7c-2.2,9,8.4,9,8.4,9s6.2,14.6,12.9,15.1c0,0,2.2,5-0.6,7.8s-5.6-2.8-8.4,5c-2.8,7.8,17.4,41.4,14.6,60.4
		c-2.8,19.1-20.2,30.9-23,51c-2.8,20.2,7.8,16.2,7.8,29.1c0,12.9,3.9,31.4-5,51c-9,19.6-1.1,45.4,2.2,62.7c3.4,17.4,2.2,35.3,1.1,42
		c-1.1,6.7,44.3,5.7,49.9,3.4s-2.8-9.6-14-10.1c-11.2-0.6-21.8-11.2-21.3-24.1c0.6-12.9-0.6-45.9,2.2-50.4
		c2.8-4.5,9.5-21.3,12.9-39.2c3.4-17.9,9-49.9,8.4-59.9c-0.6-10.1,13.6-23.5,13.5-37c-0.1-13.4-1-33,0-39.8c1-6.7,4.4-12.9-3.5-21.3
		c-7.8-8.4-16.8-13.4-16.8-17.9c0-4.5-0.6-12.3,3.9-14c4.5-1.7,5.4-1.9,7.7-4.5c2.2-2.6-2.6-11.2,0.4-14.9c3-3.7-1.2-3.2-2.7-4.7
		c-1.5-1.5,5.3-35.3,5.3-46.5s-1.5-17.6,1.1-22c2.6-4.5,2.2-11.9-1.5-22.8C1168.4,46,1164.3,41.9,1160.2,47.3z"/>
	<path d="M169.3,900.4c0.2,6.7,3.1,6.7,16.8,8c13,1.3,28,4.3,31.4,0.9c3.4-3.4-8.4-5-14.6-7.8c-6.2-2.8,10.1-2.2,15.2-2.8
		c5-0.6-4-10.6-14.6-10.1c-10.6,0.6-18.7-6.7-11.9-19.6c6.8-12.9,23.8-48.2,27.9-51.5c4.1-3.4,24.3-33.6,26.5-44.8
		c2.2-11.2,11.8-29.7,20.7-30.2c9-0.6,26.3,10.6,37,12.9c10.6,2.2,8.4,15.1,16.2,19.6c7.8,4.5,16.2,5,17.9,12.9
		c1.7,7.8-4.5,10.1-3.4,15.1s6.7,11.8,11.8,14c5,2.2,1.1,9,5.6,15.1s2.2,49.3,5.6,54.9c3.4,5.6,6.7,1.7,7.8,3.4
		c1.1,1.7,3.9,12.3,6.2,17.4c2.2,5,36.4,2.8,42,1.7c5.6-1.1-6.7-7.8-15.7-8.4c0,0,9-6.7-11.2-1.7c-9.5,1.7-8.4-10.1-8.4-10.1
		s15.7-0.6,20.7-2.2c5-1.7-15.7-4.5-21.3-4.5c-3.4-0.6-5-43.6-7.8-55.1c0,0,7.8-0.9,12.9-7c0,0,9,1.1,11.8-8.4
		c2.8-9.5-11.8-11.2-11.8-11.2s-1.1-12.3-13.4-15.7c0,0-1.1-7.3,1.7-11.2c2.8-3.9,0.6-14.6-10.1-24.6
		c-10.6-10.1-40.3-36.4-58.3-44.8c-17.9-8.4-42.6-15.1-58.8-11.2c-16.2,3.9-22.4,14.6-21.3,31.4c0.6,14.6-22.4,73.9-29.1,85.7
		c-6.7,11.8-16.2,38.7-18.5,53.8C172.6,879.1,168.7,885.2,169.3,900.4z"/>
	<path d="M776.1,888c-2.2,0.6-2.8,10.1,3.9,9.5c14.9,0.2,34.7,12.3,31.9,13.3c-2.8,1-40.3,4.1-43.7,0c-3.4-4.1-3.4-31.2-9.5-32.3
		c-6.2-1.1-26.3,19-43.1,25.2c-16.8,6.2-59.4,4.5-71.1-3.2c-11.8-7.6-74.5-4.1-85.1-4.7c-10.6-0.6-44.8,7.8-44.8,3.4
		c0-4.5,33.6-27.4,39.2-26.3c5.6,1.1,6.7,10.6,15.7,9c9-1.7,49.3-12.9,63.9-11.8c14.6,1.1,38.7,12.3,53.8-5.6
		c15.1-17.9,27.4-10.1,41.5-17.9c14-7.8,9-36.4,9.4-45.2c0.5-8.8,4.6-19.8,5.1-22c0.6-2.2-1.7-7.3-1.7-7.3
		c-7.3-1.7-12.9-12.9-12.9-12.9s-12.9,0.6-11.2-10.1c1.7-10.6,11.2-8.4,11.2-8.4c9.5-32.5,32.5-10.6,32.5-10.6
		c6.2-0.6,7.8-0.6,12.3-1.7c4.5-1.1,0.6,3.4,1.1,7.3c0.6,3.9,6.7,10.6,6.7,15.7c0,5-8.4,1.7-10.1,11.8c-1.7,10.1-1.1,20.2,1.7,24.6
		c2.8,4.5,9,14.6,5,23.5c-3.9,9-6.2,22.4-6.7,37.5c-0.6,15.1-1.7,24.6,1.1,28.6c2.8,3.9,26.2-3.8,28,11.2
		C800.8,891.4,776.1,888,776.1,888z"/>
	<path d="M1115.5,489.8c-6.4,0.6-1.1,19,0,23.5c1.1,4.5-11.8-3.9-14,2.8c-2.2,6.7,11.2,3.4,16.8,11.2c5.6,7.8,12.9,49.9,11.8,66.7
		c0,0-17.4,5.6-18.5,16.2c0,0-11.8-2.8-15.1,4.5c-3.4,7.3,2.2,16.8,14,14.6c0,0,2.2,15.1,15.1,16.2c0,0,0.6,5.6-1.7,7.8
		c-2.2,2.2-9.5,5-6.2,14.6c3.4,9.5,13.1,25.2,12.4,42.6c-0.7,17.4,0.4,30.8-8.5,39.8c-9,9-23,12.9-20.2,34.2
		c1.7,7.8-28.6,33.4-33.6,33.5s-36.4,5.7-48.2,20.8c-11.8,15.1-30.2,34.2-38.1,38.1c-7.8,3.9-12.9,3.4-13.4,11.2
		c-0.6,7.8,12.9,14,18.5,17.9c5.6,3.9,15.1,5.6,23.5,3.4c8.4-2.2-11.8-9.5-15.1-11.8c-3.4-2.2-1.7-12.9,1.7-16.2
		c3.4-3.4,45.5-29.1,52.4-30.8c6.9-1.7,15.3,0.6,26.5-6.2c11.2-6.7,44.3-30.8,51-34.7c6.7-3.9,37.5,7,52.1,8.3
		c14.6,1.2,26.9,4.6,29.1,8.5c2.2,3.9-26.3,54.3-33,61.6c-6.7,7.3-9,11.8-6.2,16.2c2.8,4.5,11.2,7.6,21.3,6
		c10.1-1.6,24.1,0.7,31.4,0.4s5-8.7-12.3-10.4c-17.4-1.7-15.1-11.8-11.2-17.4c3.9-5.6,43.7-57.1,41.5-74.5
		c-2.2-17.4-50.4-23-59.9-26.3c-9.5-3.4-19.6-8.4-15.1-14.6c4.5-6.2,6.2-10.1,14-9.5c7.8,0.6,4.5-35.3-2.8-45.4
		c-7.3-10.1-3.4-30.8-5.6-39.8c-2.2-9-15.1-6.7-18.5-11.8s-3.4-23.5-0.6-24.1c2.8-0.6,11.2-4.5,12.3-13.4c1.1-9-3.9-13.4-3.9-16.8
		c0-3.4-9-1.1-10.6-6.2c-1.7-5,6.2-15.7,1.1-34.2s-14.6-28.6-14.6-42.6C1135.1,509.9,1133.4,488.1,1115.5,489.8z"/>
</g>
<g id="Designed_by_Vecteezy">
	<g>
		<g>
			<g>
				<path class="st1" d="M732.3,937.7c0.8,0,1.6,0.7,1.6,0.7L720,968.2c-1.5,0-5.2,0.2-6.1,0.2c-0.8,0-1.6-0.7-1.6-0.7l-4.8-29.8
					c2.9,0,6.5-0.2,7.6-0.2c0.8,0,1.6,0.7,1.6,0.7l1.5,14.6c0.1,1.3,0.1,3,0.1,4.8c0.5-2,1-3.9,1.5-5.2l5.8-14.7
					C728.1,937.9,731.3,937.7,732.3,937.7L732.3,937.7z"/>
			</g>
			<g>
				<path class="st1" d="M746.6,952.4c0,3.2-1.8,5.4-6.3,6.3l-4.7,1c0.4,2,1.6,3,3.8,3c2.6,0,4.4-2,4.4-2s1.3,0.7,1.3,2.3
					c0,2.7-4.1,5.6-9,5.6c-4.9,0-8.1-3.1-8.1-8.3c0-6,4.3-14.2,11.9-14.2C744,946.1,746.6,948.6,746.6,952.4L746.6,952.4z
					 M738.6,955.5c1-0.3,1.3-1.2,1.3-2.1c0-0.9-0.3-2.2-1.3-2.2c-1.9,0-2.7,3-3,5.3L738.6,955.5z"/>
			</g>
			<g>
				<path class="st1" d="M759.4,946.1c3.8,0,6.7,2,6.7,4.7c0,3.3-4,4.5-4,4.5s-1.2-3.6-3.9-3.6c-1.8,0-2.9,1.8-2.9,5.8
					c0,3.6,1,5.2,3.3,5.2c2.4,0,3.9-1.6,3.9-1.6s1.3,0.7,1.3,2.2c0,2.6-4,5.3-8.6,5.3c-4.9,0-8-3.1-8-8.2
					C747.3,954.3,751.7,946.1,759.4,946.1L759.4,946.1z"/>
			</g>
			<g>
				<path class="st1" d="M777.8,941.3c0.9,0,1.5,0.7,1.5,0.7l-0.7,4.5h4.8l-1.1,3.5c-0.4,1.1-0.9,1.7-2,1.7h-2.5l-1.4,8.9
					c-0.2,1.4,0.1,2.1,1.1,2.1c0.9,0,1.8-0.5,1.8-0.5s1.3,0.7,1.3,2.2c0,2.2-3.1,4.3-7,4.3c-4.1,0-5.8-2.5-5.1-7l1.6-9.9h-2.6
					l1.1-3.6c0.3-0.9,1.1-1.6,2-1.6h1.3l1.5-4.2C775.2,941.9,777,941.3,777.8,941.3L777.8,941.3z"/>
			</g>
			<g>
				<path class="st1" d="M801.2,952.4c0,3.2-1.8,5.4-6.3,6.3l-4.7,1c0.4,2,1.6,3,3.8,3c2.6,0,4.4-2,4.4-2s1.3,0.7,1.3,2.3
					c0,2.7-4.1,5.6-9,5.6c-4.9,0-8.1-3.1-8.1-8.3c0-6,4.3-14.2,11.9-14.2C798.6,946.1,801.2,948.6,801.2,952.4L801.2,952.4z
					 M793.2,955.5c1-0.3,1.3-1.2,1.3-2.1c0-0.9-0.3-2.2-1.3-2.2c-1.9,0-2.7,3-3,5.3L793.2,955.5z"/>
			</g>
			<g>
				<path class="st1" d="M820.5,952.4c0,3.2-1.8,5.4-6.3,6.3l-4.7,1c0.4,2,1.6,3,3.8,3c2.6,0,4.4-2,4.4-2s1.3,0.7,1.3,2.3
					c0,2.7-4.1,5.6-9,5.6c-4.9,0-8.1-3.1-8.1-8.3c0-6,4.3-14.2,11.9-14.2C817.9,946.1,820.5,948.6,820.5,952.4L820.5,952.4z
					 M812.5,955.5c1-0.3,1.3-1.2,1.3-2.1c0-0.9-0.3-2.2-1.3-2.2c-1.9,0-2.7,3-3,5.3L812.5,955.5z"/>
			</g>
			<g>
				<path class="st1" d="M836.3,960.5c0,0,1.6,1.5,1.6,4c0,3.3-2.8,4.2-5.2,4.2c-3.1,0-5.3-1.5-7.6-2.3c-0.6,0.7-1.3,1.5-1.9,2.3
					c0,0-3.5-0.1-3.5-2.4c0-2.9,4.8-7.8,9.9-13.4c-0.6-0.1-1.2-0.2-1.7-0.2c-2.9,0-4.1,1.5-4.1,1.5s-1.5-1.7-1.4-4
					c0.2-3.1,3.1-4,5.5-4c2.5,0,4.3,1,6.1,1.7l1.5-1.7c0,0,3.5,0.1,3.5,2.5c0,2.8-4.6,7.6-9.6,13c1.1,0.3,2,0.5,3,0.5
					C835.1,962.2,836.3,960.5,836.3,960.5L836.3,960.5z"/>
			</g>
			<g>
				<path class="st1" d="M858.7,966.7c-1.2,7.6-6.4,11.4-13,11.4c-4.2,0-7.3-2.2-7.3-4.8c0-1.7,1.4-2.5,1.4-2.5s1.4,1.3,4.2,1.3
					c2.6,0,6.2-1.1,6.8-5.1l0.5-3.1c-1.8,2.6-4.1,4.6-7.1,4.6c-3.3,0-4.8-2.7-3.9-8.3l0.9-6c0.6-3.7,0.7-6.7,0.7-6.7
					c2.4-0.4,5.5-1.5,6.6-1.5c0.8,0,1.6,0.7,1.6,0.7l-1.2,7.5l-1.1,6.9c-0.1,0.6,0,1,0.6,1c2.8,0,4.3-7.9,4.3-7.9
					c0.6-3.7,0.7-6.7,0.7-6.7c2.4-0.4,5.5-1.5,6.6-1.5c0.9,0,1.6,0.7,1.6,0.7l-1.2,7.5L858.7,966.7z"/>
			</g>
		</g>
		<g>
			<path class="st1" d="M538.1,947.4h7.4c1.7,0,3,0.1,3.8,0.4c1.2,0.3,2.2,1,3,1.9c0.8,0.9,1.5,2,1.9,3.3c0.4,1.3,0.7,2.9,0.7,4.8
				c0,1.7-0.2,3.1-0.6,4.3c-0.5,1.5-1.2,2.7-2.2,3.6c-0.7,0.7-1.7,1.2-2.9,1.6c-0.9,0.3-2.1,0.4-3.6,0.4h-7.7V947.4z M542.2,950.8
				v13.4h3c1.1,0,2-0.1,2.5-0.2c0.7-0.2,1.2-0.4,1.6-0.8c0.4-0.4,0.8-1,1.1-1.9c0.3-0.9,0.4-2.1,0.4-3.7c0-1.6-0.1-2.8-0.4-3.6
				c-0.3-0.8-0.7-1.5-1.2-2c-0.5-0.5-1.1-0.8-1.9-0.9c-0.6-0.1-1.7-0.2-3.3-0.2H542.2z"/>
			<path class="st1" d="M566.4,962.9l3.9,0.6c-0.5,1.4-1.3,2.5-2.3,3.2c-1.1,0.7-2.4,1.1-4,1.1c-2.5,0-4.4-0.8-5.6-2.5
				c-1-1.3-1.4-3-1.4-5c0-2.4,0.6-4.3,1.9-5.7c1.3-1.4,2.9-2.1,4.8-2.1c2.2,0,3.9,0.7,5.1,2.2c1.3,1.4,1.9,3.6,1.8,6.6h-9.7
				c0,1.1,0.3,2,0.9,2.7c0.6,0.6,1.3,1,2.2,1c0.6,0,1.1-0.2,1.5-0.5C565.8,964.1,566.2,963.6,566.4,962.9z M566.6,959
				c0-1.1-0.3-2-0.9-2.6c-0.6-0.6-1.2-0.9-2-0.9c-0.8,0-1.5,0.3-2.1,0.9c-0.6,0.6-0.8,1.4-0.8,2.5H566.6z"/>
			<path class="st1" d="M571.6,963.4l3.9-0.6c0.2,0.8,0.5,1.3,1,1.7c0.5,0.4,1.2,0.6,2.1,0.6c1,0,1.8-0.2,2.3-0.6
				c0.3-0.3,0.5-0.6,0.5-1c0-0.3-0.1-0.5-0.3-0.7c-0.2-0.2-0.6-0.4-1.3-0.5c-3.1-0.7-5.1-1.3-5.9-1.9c-1.2-0.8-1.7-1.9-1.7-3.3
				c0-1.3,0.5-2.3,1.5-3.2c1-0.9,2.6-1.3,4.7-1.3c2,0,3.5,0.3,4.5,1c1,0.7,1.6,1.6,2,2.9l-3.6,0.7c-0.2-0.6-0.5-1-0.9-1.3
				c-0.4-0.3-1.1-0.5-1.9-0.5c-1,0-1.7,0.1-2.2,0.4c-0.3,0.2-0.4,0.5-0.4,0.8c0,0.3,0.1,0.5,0.4,0.7c0.3,0.3,1.6,0.6,3.6,1.1
				c2.1,0.5,3.5,1,4.3,1.7c0.8,0.7,1.2,1.6,1.2,2.9c0,1.3-0.6,2.5-1.7,3.5c-1.1,1-2.8,1.4-5,1.4c-2,0-3.6-0.4-4.7-1.2
				C572.8,965.8,572,964.7,571.6,963.4z"/>
			<path class="st1" d="M588.1,950.9v-3.6h3.9v3.6H588.1z M588.1,967.5v-14.6h3.9v14.6H588.1z"/>
			<path class="st1" d="M595,968.5l4.4,0.5c0.1,0.5,0.2,0.9,0.5,1.1c0.4,0.3,0.9,0.4,1.7,0.4c1,0,1.8-0.2,2.3-0.5
				c0.3-0.2,0.6-0.5,0.8-1c0.1-0.3,0.2-0.9,0.2-1.8v-2.1c-1.2,1.6-2.6,2.4-4.4,2.4c-2,0-3.5-0.8-4.7-2.5c-0.9-1.3-1.3-2.9-1.3-4.9
				c0-2.4,0.6-4.3,1.8-5.6c1.2-1.3,2.6-1.9,4.4-1.9c1.8,0,3.3,0.8,4.5,2.4v-2.1h3.6V966c0,1.7-0.1,3-0.4,3.9c-0.3,0.9-0.7,1.5-1.2,2
				c-0.5,0.5-1.2,0.9-2.1,1.1c-0.9,0.3-1.9,0.4-3.3,0.4c-2.5,0-4.2-0.4-5.3-1.3s-1.6-1.9-1.6-3.2C595,968.8,595,968.7,595,968.5z
				 M598.5,959.9c0,1.6,0.3,2.7,0.9,3.4c0.6,0.7,1.3,1.1,2.2,1.1c0.9,0,1.7-0.4,2.4-1.1c0.7-0.7,1-1.8,1-3.3c0-1.5-0.3-2.6-0.9-3.4
				c-0.6-0.7-1.4-1.1-2.4-1.1c-0.9,0-1.7,0.4-2.3,1.1C598.8,957.3,598.5,958.4,598.5,959.9z"/>
			<path class="st1" d="M625.3,967.5h-3.9v-7.5c0-1.6-0.1-2.6-0.2-3.1c-0.2-0.5-0.4-0.8-0.8-1.1c-0.4-0.3-0.8-0.4-1.3-0.4
				c-0.7,0-1.3,0.2-1.8,0.6c-0.5,0.4-0.9,0.9-1.1,1.5c-0.2,0.6-0.3,1.7-0.3,3.4v6.6H612v-14.6h3.6v2.1c1.3-1.7,2.9-2.5,4.8-2.5
				c0.9,0,1.6,0.2,2.3,0.5c0.7,0.3,1.2,0.7,1.6,1.2c0.4,0.5,0.6,1,0.8,1.6c0.1,0.6,0.2,1.5,0.2,2.6V967.5z"/>
			<path class="st1" d="M637.2,962.9l3.9,0.6c-0.5,1.4-1.3,2.5-2.3,3.2c-1.1,0.7-2.4,1.1-4,1.1c-2.5,0-4.4-0.8-5.6-2.5
				c-1-1.3-1.4-3-1.4-5c0-2.4,0.6-4.3,1.9-5.7c1.3-1.4,2.9-2.1,4.8-2.1c2.2,0,3.9,0.7,5.1,2.2c1.3,1.4,1.9,3.6,1.8,6.6h-9.7
				c0,1.1,0.3,2,0.9,2.7c0.6,0.6,1.3,1,2.2,1c0.6,0,1.1-0.2,1.5-0.5C636.6,964.1,636.9,963.6,637.2,962.9z M637.4,959
				c0-1.1-0.3-2-0.9-2.6c-0.6-0.6-1.2-0.9-2-0.9c-0.8,0-1.5,0.3-2.1,0.9c-0.6,0.6-0.8,1.4-0.8,2.5H637.4z"/>
			<path class="st1" d="M657.2,967.5h-3.6v-2.1c-0.6,0.8-1.3,1.5-2.1,1.9c-0.8,0.4-1.6,0.6-2.5,0.6c-1.7,0-3.1-0.7-4.3-2
				c-1.2-1.4-1.8-3.2-1.8-5.7c0-2.5,0.6-4.4,1.7-5.7c1.2-1.3,2.6-1.9,4.4-1.9c1.6,0,3,0.7,4.2,2v-7.3h3.9V967.5z M646.9,959.9
				c0,1.6,0.2,2.7,0.6,3.4c0.6,1,1.5,1.5,2.6,1.5c0.9,0,1.6-0.4,2.3-1.1c0.6-0.8,0.9-1.9,0.9-3.4c0-1.7-0.3-2.9-0.9-3.6
				c-0.6-0.7-1.4-1.1-2.3-1.1c-0.9,0-1.7,0.4-2.3,1.1C647.2,957.4,646.9,958.5,646.9,959.9z"/>
			<path class="st1" d="M667.6,967.5v-20.2h3.9v7.3c1.2-1.4,2.6-2,4.2-2c1.8,0,3.3,0.6,4.4,1.9c1.2,1.3,1.7,3.1,1.7,5.6
				c0,2.5-0.6,4.4-1.8,5.8c-1.2,1.3-2.6,2-4.3,2c-0.8,0-1.7-0.2-2.5-0.6c-0.8-0.4-1.5-1-2.1-1.9v2.1H667.6z M671.4,959.9
				c0,1.5,0.2,2.6,0.7,3.4c0.7,1,1.6,1.5,2.7,1.5c0.9,0,1.6-0.4,2.2-1.1c0.6-0.7,0.9-1.9,0.9-3.4c0-1.7-0.3-2.9-0.9-3.6
				c-0.6-0.7-1.4-1.1-2.3-1.1c-0.9,0-1.7,0.4-2.3,1.1C671.7,957.3,671.4,958.4,671.4,959.9z"/>
			<path class="st1" d="M682.6,952.9h4.1l3.5,10.4l3.4-10.4h4l-5.2,14.1l-0.9,2.5c-0.3,0.9-0.7,1.5-1,2c-0.3,0.4-0.7,0.8-1.1,1.1
				c-0.4,0.3-0.9,0.5-1.5,0.7c-0.6,0.2-1.2,0.2-2,0.2c-0.7,0-1.5-0.1-2.2-0.2l-0.3-3c0.6,0.1,1.2,0.2,1.6,0.2c0.9,0,1.6-0.3,2-0.8
				c0.4-0.5,0.8-1.2,1-2L682.6,952.9z"/>
		</g>
	</g>
</g>
</svg>
