<?xml version="1.0" encoding="UTF-8"?>
<svg xmlns="http://www.w3.org/2000/svg" xmlns:xlink="http://www.w3.org/1999/xlink" width="5000" height="5000" viewBox="0 0 5000 5000">

<path fill-rule="evenodd" fill="rgb(0%, 0%, 0%)" fill-opacity="1" d="M 706.5 4525.503906 C 710.992188 4512.882812 744.191406 4422.902344 774.667969 4431.640625 C 774.667969 4431.640625 794.199219 4426.941406 833.898438 4492.058594 C 833.898438 4492.058594 1004.019531 4478.632812 1055.058594 4464.535156 C 1055.058594 4464.535156 1224.558594 4422.242188 1271.191406 4464.535156 C 1271.191406 4464.535156 1307.628906 4308.125 1293.609375 4177.441406 C 1293.609375 4177.441406 1153.871094 3921.679688 1369.921875 3806.269531 C 1502.308594 3715.390625 1624.890625 3640.710938 1682.21875 3608.378906 C 1719.300781 3587.308594 1878.980469 3474.128906 2100.058594 3575.609375 C 2128.769531 3588.75 2154.75 3607.210938 2176.609375 3630 C 2220.328125 3675.46875 2308.140625 3759.320312 2351.46875 3749.320312 C 2363.550781 3746.578125 2375.921875 3745.308594 2388.308594 3745.511719 C 2425.179688 3745.949219 2483.019531 3757.410156 2495.601562 3821.199219 C 2495.601562 3821.199219 2518.769531 3774.578125 2556.769531 3800.609375 C 2562.308594 3804.398438 2567.050781 3809.25 2570.730469 3814.859375 C 2582.53125 3833.660156 2611.980469 3888.449219 2574.71875 3921.929688 C 2574.351562 3922.261719 2574 3922.601562 2573.671875 3922.960938 C 2568.011719 3928.730469 2534.308594 3959.21875 2499.359375 3912.488281 C 2499.359375 3912.488281 2551.011719 3991.621094 2442.960938 4066.324219 C 2441.308594 4067.457031 2439.808594 4068.773438 2438.460938 4070.253906 C 2430.710938 4078.402344 2402.378906 4103.121094 2356.121094 4092.015625 C 2355.429688 4091.851562 2354.71875 4091.699219 2354.019531 4091.570312 C 2345.898438 4089.921875 2305.910156 4080.550781 2264.101562 4049.75 C 2264.109375 4049.710938 2264.121094 4049.671875 2264.140625 4049.636719 C 2270.140625 4034.648438 2274.191406 4018.695312 2276.679688 4002.539062 C 2279.210938 3986.199219 2280.171875 3969.671875 2280.121094 3953.789062 C 2280.089844 3945.421875 2279.769531 3937.230469 2279.21875 3929.339844 C 2278.628906 3920.828125 2277.78125 3912.671875 2276.78125 3905.011719 C 2275.890625 3898.121094 2274.851562 3891.648438 2273.789062 3885.691406 C 2271.671875 3873.761719 2269.398438 3863.921875 2267.699219 3857 L 2267.699219 3856.980469 C 2266.851562 3853.738281 2265.890625 3850.550781 2264.789062 3847.410156 C 2263.699219 3844.261719 2262.480469 3841.160156 2261.140625 3838.109375 C 2254.019531 3822.019531 2249.53125 3806.929688 2246.660156 3793.851562 C 2240.589844 3766.109375 2241.949219 3747.421875 2241.949219 3747.421875 C 2241.960938 3747.300781 2241.878906 3747.199219 2241.769531 3747.191406 C 2241.648438 3747.179688 2241.550781 3747.261719 2241.539062 3747.378906 C 2241.539062 3747.378906 2239.300781 3766.148438 2244.320312 3794.320312 C 2246.699219 3807.679688 2250.738281 3823.128906 2257.371094 3839.699219 C 2258.578125 3842.691406 2259.660156 3845.71875 2260.628906 3848.789062 C 2261.601562 3851.851562 2262.460938 3854.949219 2263.191406 3858.089844 C 2264.71875 3864.941406 2266.679688 3874.738281 2268.621094 3886.570312 C 2270.03125 3895.179688 2271.398438 3904.878906 2272.578125 3915.308594 C 2273.820312 3926.191406 2274.851562 3937.878906 2275.351562 3950.011719 C 2275.660156 3957.601562 2275.789062 3965.359375 2275.648438 3973.210938 C 2275.460938 3983.421875 2274.820312 3993.78125 2273.578125 4004.078125 C 2271.730469 4019.511719 2267.679688 4034.15625 2262.621094 4048.652344 C 2262.269531 4048.476562 2262.890625 4048.855469 2262.589844 4048.625 C 2262.589844 4048.625 2250.929688 4158.34375 2255.78125 4237.066406 C 2257.128906 4259.03125 2262.738281 4280.519531 2272.320312 4300.324219 C 2283.601562 4323.667969 2300.808594 4385.726562 2301.46875 4547.648438 C 2301.46875 4547.648438 2417.089844 4562.90625 2440.730469 4562.90625 C 2440.730469 4562.90625 2453.859375 4563.945312 2447.289062 4570.183594 C 2447.289062 4570.183594 2511.710938 4587.339844 2460.46875 4603.972656 C 2460.46875 4603.972656 2387.191406 4614.734375 2347.148438 4602.222656 C 2345.398438 4601.550781 2343.421875 4602.019531 2342.160156 4603.410156 C 2340.898438 4604.800781 2340.621094 4606.820312 2341.460938 4608.496094 C 2346.011719 4617.585938 2345.289062 4626.507812 2318.410156 4620.585938 C 2316.230469 4620.125 2313.949219 4620.640625 2312.179688 4622.003906 C 2310.410156 4623.367188 2309.328125 4625.4375 2309.21875 4627.667969 C 2308.691406 4638.554688 2309.261719 4659.847656 2316.191406 4695.070312 C 2318.691406 4708 2327.980469 4718.5625 2340.488281 4722.679688 C 2351.519531 4726.15625 2366.210938 4730.390625 2382.269531 4733.738281 C 2384.539062 4734.207031 2386.828125 4734.519531 2389.148438 4734.671875 C 2410.289062 4736.058594 2525.488281 4743.726562 2544.890625 4747.972656 C 2544.890625 4747.972656 2551.71875 4752.652344 2551.71875 4760.449219 C 2551.71875 4760.449219 2593.648438 4777.90625 2581.710938 4800.589844 C 2578.929688 4805.878906 2573.769531 4809.503906 2567.851562 4810.328125 C 2554.128906 4812.140625 2521.101562 4815.261719 2486.328125 4809.316406 C 2486.328125 4809.316406 2538.25 4837.390625 2499.359375 4834.789062 C 2460.761719 4832.210938 2448.941406 4809.660156 2410.601562 4809.320312 C 2410.308594 4809.316406 2410.011719 4809.3125 2409.71875 4809.308594 C 2409.691406 4809.316406 2346.570312 4807.894531 2309.089844 4803.859375 C 2294.519531 4801.996094 2281.78125 4793.140625 2274.949219 4780.136719 C 2238.671875 4710.011719 2150.570312 4479.308594 2150.570312 4343.933594 C 2150.570312 4343.933594 2139.988281 4179.660156 2117.300781 4123.753906 C 2094.621094 4067.84375 2093.359375 4019.03125 2094.621094 3951.898438 C 2094.621094 3951.898438 2094.289062 3952.140625 2093.648438 3952.589844 C 2094.648438 3948.269531 2095.539062 3944.148438 2096.269531 3940.179688 C 2097.53125 3933.351562 2098.421875 3927.058594 2098.960938 3921.25 C 2099.378906 3916.679688 2099.589844 3912.429688 2099.589844 3908.460938 C 2099.578125 3903.78125 2099.261719 3899.519531 2098.820312 3895.628906 C 2098.058594 3888.941406 2096.839844 3883.390625 2095.441406 3878.769531 C 2089.988281 3860.871094 2081.96875 3857.230469 2081.96875 3857.230469 C 2081.859375 3857.179688 2081.738281 3857.21875 2081.679688 3857.320312 C 2081.628906 3857.421875 2081.660156 3857.539062 2081.769531 3857.601562 C 2081.769531 3857.601562 2090.140625 3863.03125 2093.03125 3885.730469 C 2093.660156 3890.660156 2094.011719 3896.390625 2094.128906 3903.078125 C 2094.191406 3906.679688 2094.191406 3910.539062 2094.160156 3914.710938 C 2094.121094 3920.058594 2094.011719 3925.878906 2093.710938 3932.261719 C 2093.410156 3938.789062 2093 3945.839844 2092.28125 3953.511719 C 2075.300781 3964.820312 1969.039062 4028.910156 1872.808594 3932.21875 C 1856.488281 3915.828125 1833.121094 3908.570312 1810.378906 3912.839844 C 1766.808594 3921.339844 1694.089844 3954.371094 1604.238281 4067.320312 C 1593.710938 4080.546875 1588.238281 4097.085938 1588.800781 4113.980469 C 1591.089844 4190.359375 1583.941406 4432.617188 1425.441406 4692.289062 C 1408.300781 4720.324219 1378.441406 4738.109375 1345.628906 4739.824219 C 1252.519531 4744.59375 1055.769531 4750.738281 955.507812 4725.664062 C 955.507812 4725.664062 800.503906 4683.511719 711.65625 4708.984375 C 711.65625 4708.984375 639.828125 4734.59375 510.027344 4718.382812 C 510.027344 4718.382812 450.796875 4751.84375 414.253906 4725.664062 C 414.253906 4725.664062 403.539062 4692.101562 467.8125 4678.003906 C 467.8125 4678.003906 545.34375 4646.066406 567.71875 4621.910156 C 568.988281 4620.503906 570.492188 4619.324219 572.160156 4618.429688 C 576.527344 4616.03125 581.539062 4612.980469 586.992188 4609.082031 C 590.132812 4606.835938 593.414062 4604.304688 596.796875 4601.453125 C 599.796875 4598.929688 602.882812 4596.160156 606 4593.105469 C 608.28125 4590.871094 610.578125 4588.484375 612.882812 4585.9375 C 616.054688 4582.429688 619.230469 4578.617188 622.417969 4574.496094 C 625.324219 4570.738281 628.222656 4566.722656 631.101562 4562.429688 C 632.960938 4559.660156 641.039062 4549.648438 642.347656 4547.648438 C 653.6875 4530.320312 674.480469 4500.238281 705.988281 4526.964844 C 705.988281 4526.964844 716.921875 4544.109375 722.289062 4551.1875 C 737.394531 4571.105469 751.253906 4582.023438 754.378906 4584.382812 L 754.390625 4584.386719 C 754.398438 4584.394531 756.105469 4585.339844 756.105469 4585.339844 C 767.558594 4590.007812 776.183594 4596.554688 794.449219 4599.144531 C 804.488281 4600.566406 817.4375 4600.777344 835.359375 4598.8125 C 850.410156 4597.128906 869 4593.921875 892.347656 4588.511719 C 902.609375 4586.132812 913.789062 4583.339844 925.988281 4580.03125 C 941.011719 4575.957031 957.570312 4571.089844 975.890625 4565.441406 C 995.074219 4559.445312 1013.261719 4554.941406 1030.441406 4551.613281 C 1061.769531 4545.550781 1089.75 4543.503906 1114.390625 4544.039062 C 1203.039062 4545.957031 1248.398438 4581.296875 1248.398438 4581.296875 C 1248.488281 4581.367188 1248.621094 4581.355469 1248.691406 4581.265625 C 1248.769531 4581.175781 1248.75 4581.042969 1248.660156 4580.972656 C 1248.660156 4580.972656 1203.730469 4544.199219 1114.5 4540.617188 C 1089.621094 4539.617188 1061.289062 4541.210938 1029.570312 4546.933594 C 1012.171875 4550.074219 993.765625 4554.496094 974.332031 4560.367188 C 956.0625 4565.972656 939.53125 4570.730469 924.570312 4574.847656 C 912.449219 4578.1875 901.355469 4581.101562 891.175781 4583.585938 C 868.105469 4589.21875 849.746094 4592.71875 834.859375 4594.597656 C 817.386719 4596.839844 804.738281 4596.867188 794.90625 4595.667969 C 776.964844 4593.484375 768.398438 4587.203125 757.082031 4582.867188 L 757.078125 4582.867188 C 757.078125 4582.863281 755.914062 4582.257812 755.914062 4582.257812 C 752.789062 4580.015625 738.898438 4569.53125 723.519531 4550.230469 C 717.894531 4543.171875 712.070312 4534.941406 706.5 4525.503906 Z M 634.066406 4555.832031 C 632.667969 4557.796875 631.273438 4559.707031 629.886719 4561.566406 C 625.175781 4567.867188 620.492188 4573.554688 615.914062 4578.71875 C 612.488281 4582.585938 609.113281 4586.144531 605.839844 4589.449219 C 602.164062 4593.15625 598.617188 4596.539062 595.183594 4599.589844 C 589.707031 4604.457031 584.554688 4608.5 579.855469 4611.828125 C 576.640625 4614.101562 573.640625 4616.039062 570.902344 4617.683594 C 569.597656 4618.460938 568.167969 4619 566.671875 4619.277344 C 555.667969 4621.273438 524.699219 4625.785156 522.628906 4613.832031 C 522.628906 4613.832031 522.628906 4590.066406 570.515625 4586.710938 C 570.515625 4586.710938 613.890625 4571.128906 634.066406 4555.832031 Z M 1347.460938 4155.707031 C 1355.160156 4172.058594 1361.28125 4189.171875 1365.898438 4206.917969 C 1372.589844 4232.59375 1376.058594 4259.597656 1376.390625 4287.585938 C 1376.570312 4302.386719 1375.871094 4317.460938 1374.320312 4332.757812 C 1372.828125 4347.464844 1370.519531 4362.375 1367.46875 4377.457031 C 1365.109375 4389.097656 1362.308594 4400.835938 1359.058594 4412.664062 C 1354.371094 4429.730469 1348.769531 4446.976562 1342.160156 4464.320312 C 1335.851562 4480.898438 1328.660156 4497.574219 1320.578125 4514.296875 C 1309.089844 4538.074219 1295.839844 4561.945312 1280.710938 4585.699219 C 1280.648438 4585.800781 1280.671875 4585.929688 1280.769531 4585.996094 C 1280.871094 4586.058594 1281 4586.03125 1281.070312 4585.933594 C 1296.988281 4562.617188 1311.109375 4539.160156 1323.308594 4515.660156 C 1331.921875 4499.074219 1339.578125 4482.484375 1346.28125 4465.941406 C 1353.320312 4448.582031 1359.328125 4431.289062 1364.238281 4414.117188 C 1367.648438 4402.1875 1370.519531 4390.320312 1372.859375 4378.539062 C 1375.898438 4363.261719 1378.03125 4348.136719 1379.328125 4333.230469 C 1380.671875 4317.726562 1381.089844 4302.460938 1380.578125 4287.488281 C 1379.609375 4259.253906 1375.378906 4232.085938 1367.898438 4206.367188 C 1362.761719 4188.679688 1356.058594 4171.699219 1347.839844 4155.519531 C 1347.789062 4155.414062 1347.660156 4155.371094 1347.558594 4155.421875 C 1347.449219 4155.472656 1347.410156 4155.601562 1347.460938 4155.707031 Z M 2368.558594 3918.191406 C 2368.558594 3918.191406 2381.511719 3918.179688 2388.828125 3910.859375 C 2393.121094 3906.570312 2395.519531 3899.851562 2392.589844 3889.339844 C 2390.859375 3883.28125 2387.808594 3877.761719 2383.730469 3873.140625 C 2379.609375 3868.480469 2374.429688 3864.789062 2368.570312 3862.289062 L 2368.558594 3862.289062 C 2363.671875 3860.351562 2357.800781 3858.28125 2351.359375 3856.910156 C 2342.859375 3855.109375 2333.429688 3854.390625 2324.25 3856.039062 C 2310.941406 3858.421875 2298.128906 3865.730469 2289.378906 3882.019531 C 2289.320312 3882.121094 2289.351562 3882.25 2289.449219 3882.308594 C 2289.550781 3882.371094 2289.679688 3882.339844 2289.730469 3882.238281 C 2299.328125 3867.398438 2311.988281 3861.421875 2324.820312 3859.980469 C 2333.519531 3859 2342.269531 3860.179688 2350.191406 3862.070312 C 2356.300781 3863.53125 2361.929688 3865.371094 2366.589844 3867.21875 C 2371.828125 3869.230469 2376.480469 3872.371094 2380.308594 3876.308594 C 2384.171875 3880.300781 2387.21875 3885.078125 2389.089844 3890.460938 C 2392.28125 3899.410156 2390.699219 3905.390625 2387.261719 3909.410156 C 2380.839844 3916.878906 2368.550781 3917.769531 2368.550781 3917.769531 C 2368.429688 3917.769531 2368.339844 3917.871094 2368.351562 3917.988281 C 2368.351562 3918.101562 2368.449219 3918.191406 2368.558594 3918.191406 "/>
<path fill-rule="evenodd" fill="rgb(0%, 0%, 0%)" fill-opacity="1" d="M 2661.230469 2527.449219 C 2661.050781 2531.519531 2660.878906 2536.539062 2660.78125 2542.148438 C 2660.691406 2547.410156 2660.648438 2553.191406 2660.730469 2559.191406 C 2660.769531 2561.53125 2660.808594 2563.898438 2660.871094 2566.28125 C 2660.921875 2568.628906 2660.988281 2571 2661.058594 2573.371094 C 2661.199219 2578.121094 2661.398438 2582.878906 2661.761719 2587.5 C 2662.089844 2591.660156 2662.519531 2595.699219 2663.109375 2599.550781 C 2664.140625 2606.171875 2665.601562 2612.171875 2667.78125 2617.109375 C 2667.808594 2617.171875 2667.78125 2617.25 2667.71875 2617.28125 C 2667.660156 2617.308594 2667.578125 2617.289062 2667.550781 2617.21875 C 2664.148438 2611.011719 2661.691406 2602.878906 2660.050781 2593.871094 C 2659.109375 2588.648438 2658.429688 2583.160156 2658.011719 2577.589844 C 2657.761719 2574.320312 2657.609375 2571.039062 2657.558594 2567.769531 C 2657.480469 2562.75 2657.609375 2557.789062 2657.828125 2553.039062 C 2658 2549.199219 2658.261719 2545.511719 2658.550781 2542.03125 C 2658.96875 2536.96875 2659.460938 2532.398438 2659.910156 2528.570312 C 2658.230469 2529.78125 2656.199219 2530.519531 2654.011719 2530.628906 C 2625.789062 2532.070312 2531.199219 2537.621094 2487.761719 2549.679688 C 2487.761719 2549.679688 2385.378906 2581.5 2320.960938 2577.011719 C 2315.328125 2576.589844 2309.671875 2577.449219 2304.410156 2579.519531 C 2297.011719 2582.371094 2284.769531 2585.890625 2270.671875 2585.101562 C 2266.121094 2584.808594 2261.710938 2586.75 2258.839844 2590.300781 C 2255.28125 2594.621094 2253.949219 2601.101562 2265.851562 2608.21875 C 2265.851562 2608.21875 2264.871094 2608.449219 2263.269531 2608.851562 C 2259.238281 2609.839844 2256.578125 2613.691406 2257.089844 2617.808594 C 2257.589844 2621.929688 2261.101562 2625.03125 2265.25 2625.019531 C 2279.238281 2624.851562 2299.960938 2622.398438 2330.511719 2615.03125 C 2330.511719 2615.03125 2314.621094 2646.96875 2356.660156 2638.789062 C 2356.660156 2638.789062 2429 2633.53125 2470.441406 2618.820312 C 2470.441406 2618.820312 2483.019531 2608.21875 2513.339844 2608.21875 C 2513.339844 2608.21875 2632.921875 2609.640625 2653.410156 2618.378906 C 2654.78125 2618.199219 2656.421875 2618.039062 2658.28125 2617.921875 C 2662.21875 2617.671875 2667.140625 2617.628906 2672.570312 2618.238281 C 2675.109375 2618.519531 2677.761719 2618.949219 2680.460938 2619.570312 C 2682.988281 2620.160156 2685.578125 2620.898438 2688.160156 2621.871094 C 2690.128906 2622.609375 2692.101562 2623.488281 2694.039062 2624.5 C 2696.820312 2625.960938 2699.539062 2627.710938 2702.148438 2629.75 C 2704.609375 2631.671875 2706.960938 2633.851562 2709.160156 2636.339844 C 2712.148438 2639.710938 2714.828125 2643.621094 2717.160156 2648.140625 C 2717.191406 2648.199219 2717.171875 2648.28125 2717.109375 2648.320312 C 2717.050781 2648.359375 2716.96875 2648.339844 2716.929688 2648.269531 C 2714.171875 2644.121094 2711.089844 2640.628906 2707.839844 2637.628906 C 2705.5 2635.46875 2703.070312 2633.589844 2700.578125 2631.929688 C 2697.960938 2630.179688 2695.269531 2628.710938 2692.578125 2627.421875 C 2690.710938 2626.519531 2688.828125 2625.71875 2686.960938 2624.988281 C 2684.511719 2624.039062 2682.089844 2623.210938 2679.699219 2622.53125 C 2677.128906 2621.800781 2674.609375 2621.210938 2672.191406 2620.738281 C 2666.941406 2619.738281 2662.160156 2619.308594 2658.300781 2619.171875 C 2657.058594 2619.128906 2655.910156 2619.121094 2654.878906 2619.121094 C 2655.011719 2619.199219 2655.128906 2619.28125 2655.25 2619.359375 C 2655.25 2619.359375 2619.960938 2621.359375 2559.46875 2638.789062 C 2559.46875 2638.789062 2422.308594 2669.410156 2336.058594 2661.058594 C 2320.339844 2659.53125 2304.488281 2661.429688 2289.578125 2666.628906 C 2283.980469 2668.558594 2277.109375 2670.730469 2268.730469 2673.121094 C 2221.230469 2686.199219 2210.769531 2697.101562 2168.261719 2698.738281 C 2168.261719 2698.738281 2112.671875 2703.640625 2127.378906 2716.71875 C 2127.378906 2716.71875 2107.441406 2720.78125 2098.96875 2722.5 C 2095.839844 2723.140625 2093.089844 2724.96875 2091.289062 2727.609375 C 2087.351562 2733.371094 2084.988281 2743.289062 2110.488281 2747.789062 C 2110.488281 2747.789062 2100.339844 2773.949219 2221.230469 2741.25 C 2221.230469 2741.25 2182.738281 2783.480469 2249.460938 2755.421875 C 2249.460938 2755.421875 2312.660156 2754.921875 2345.03125 2739.339844 C 2348.328125 2737.730469 2351.890625 2736.738281 2355.539062 2736.421875 C 2377.75 2734.550781 2456.808594 2728.949219 2489.109375 2738.710938 C 2495.671875 2740.691406 2502.378906 2742.160156 2509.160156 2743.089844 C 2542.550781 2747.578125 2631.230469 2758.328125 2696.578125 2756.238281 C 2738.820312 2754.808594 2773.449219 2722.261719 2777.480469 2680.179688 C 2779.691406 2657.710938 2780.308594 2632.21875 2776.269531 2609.511719 C 2776.269531 2609.511719 2776.921875 2609.621094 2778.148438 2609.800781 L 2778.148438 2609.78125 C 2778.160156 2608.179688 2778.460938 2606.589844 2778.53125 2604.949219 C 2779.589844 2579.609375 2779.699219 2555.859375 2779.199219 2533.570312 C 2778.628906 2507.941406 2777.140625 2484.289062 2774.960938 2462.46875 C 2773.980469 2452.679688 2772.859375 2443.269531 2771.660156 2434.199219 C 2770.800781 2427.769531 2769.898438 2421.519531 2768.960938 2415.441406 C 2766.359375 2398.621094 2763.351562 2383.148438 2760.039062 2368.921875 C 2754.578125 2345.5 2748.320312 2325.480469 2741.800781 2308.511719 C 2719.210938 2249.671875 2693.71875 2227.550781 2693.71875 2227.550781 C 2693.609375 2227.460938 2693.589844 2227.300781 2693.679688 2227.191406 C 2693.769531 2227.078125 2693.941406 2227.058594 2694.050781 2227.148438 C 2694.050781 2227.148438 2720.941406 2248.328125 2745.738281 2306.921875 C 2752.910156 2323.851562 2759.910156 2343.910156 2765.921875 2367.488281 C 2769.570312 2381.800781 2772.851562 2397.410156 2775.570312 2414.390625 C 2776.558594 2420.53125 2777.449219 2426.851562 2778.25 2433.359375 C 2779.371094 2442.519531 2780.308594 2452.039062 2781.058594 2461.929688 C 2782.410156 2479.800781 2783.179688 2498.878906 2783.210938 2519.230469 C 2783.238281 2545.648438 2781.96875 2574.179688 2779.371094 2605.011719 C 2779.230469 2606.628906 2778.859375 2608.210938 2778.769531 2609.800781 C 2778.761719 2609.828125 2778.761719 2609.859375 2778.761719 2609.878906 C 2786.378906 2610.941406 2810.738281 2613.691406 2841.539062 2610.988281 C 2849.429688 2610.289062 2856.019531 2604.660156 2857.941406 2596.96875 C 2867.871094 2555.25 2895.46875 2417.421875 2858.339844 2304.550781 C 2858.339844 2304.550781 2919.828125 2303.039062 2960.558594 2268.300781 C 2960.558594 2268.300781 3194.199219 2217.03125 3281.679688 2261.929688 C 3293.800781 2268.199219 3306.429688 2273.410156 3319.449219 2277.5 C 3399.589844 2302.390625 3650.21875 2375.710938 3812.238281 2376.738281 C 3812.238281 2376.738281 3871.488281 2363.160156 3964.070312 2386.609375 C 3964.390625 2386.691406 3964.710938 2386.769531 3965.03125 2386.851562 C 3975.539062 2389.269531 4070.628906 2409.800781 4180.019531 2385.269531 C 4180.019531 2385.269531 4235.761719 2388.660156 4290.128906 2404.78125 C 4304.640625 2409.078125 4319.628906 2411.539062 4334.75 2412.121094 C 4389.429688 2414.308594 4518.128906 2421.878906 4552.710938 2445.011719 C 4552.710938 2445.011719 4573.078125 2470.769531 4577.011719 2523.488281 C 4577.449219 2529.289062 4578.398438 2535.050781 4579.851562 2540.679688 C 4584.441406 2558.648438 4591.378906 2602.179688 4552.710938 2609.519531 C 4552.710938 2609.519531 4483.628906 2620.269531 4530.578125 2638.789062 C 4530.578125 2638.789062 4547.78125 2641.738281 4566.109375 2643.109375 C 4585.769531 2644.480469 4604.890625 2636.300781 4617.46875 2621.128906 C 4622.390625 2615.261719 4629.300781 2610.050781 4638.550781 2609.511719 C 4660.691406 2608.21875 4660.691406 2531.621094 4660.691406 2516.191406 C 4660.691406 2516.191406 4678.789062 2516.199219 4682.148438 2532.941406 C 4682.148438 2532.941406 4724.398438 2644.859375 4715.011719 2657.320312 C 4715.011719 2657.320312 4705.179688 2699.199219 4663.191406 2699.980469 C 4659.21875 2700.058594 4655.800781 2702.789062 4654.839844 2706.648438 C 4652.210938 2717.359375 4652.769531 2736.890625 4692.210938 2736.890625 C 4692.210938 2736.890625 4750.859375 2741.609375 4766.039062 2721.621094 C 4768.859375 2717.921875 4772.121094 2714.558594 4775.738281 2711.609375 C 4787.441406 2702.011719 4809.570312 2678.609375 4809.570312 2638.789062 C 4809.570312 2638.789062 4790.410156 2553.941406 4808.191406 2534.28125 C 4808.78125 2533.621094 4809.371094 2532.941406 4809.941406 2532.261719 C 4815.890625 2525.308594 4871.710938 2456.171875 4855.179688 2411.289062 C 4855.179688 2411.289062 4853.171875 2368.210938 4730.429688 2376.738281 C 4730.429688 2376.738281 4730.460938 2376.210938 4730.410156 2375.261719 C 4715.25 2376.78125 4699.890625 2377.039062 4684.558594 2376.210938 C 4673.019531 2375.589844 4661.511719 2374.359375 4650.148438 2372.628906 C 4638.621094 2370.890625 4627.25 2368.671875 4616.160156 2366.011719 C 4608.589844 2364.199219 4601.148438 2362.179688 4593.890625 2360 C 4584.449219 2357.171875 4575.320312 2354.070312 4566.550781 2350.859375 C 4557.160156 2347.429688 4548.210938 2343.859375 4539.769531 2340.269531 C 4521.421875 2332.46875 4505.519531 2324.660156 4493.011719 2318.109375 C 4491.410156 2317.269531 4489.871094 2316.449219 4488.378906 2315.660156 C 4479.808594 2312.679688 4472.320312 2309.238281 4466.410156 2305.289062 C 4464.289062 2303.871094 4462.148438 2302.511719 4459.96875 2301.191406 C 4436.28125 2287.039062 4297.5 2206.859375 4225.460938 2212.539062 C 4222.011719 2212.820312 4218.550781 2213.011719 4215.089844 2213.109375 C 4183.628906 2213.898438 4027.210938 2214.878906 3918.570312 2170.640625 C 3890.96875 2159.429688 3862.429688 2150.699219 3833.28125 2144.558594 C 3792.910156 2136.070312 3734.640625 2118.609375 3690.640625 2083.980469 C 3690.640625 2083.980469 3497.058594 1879.710938 3293.828125 1991.320312 C 3293.828125 1991.320312 3235.390625 2036.359375 3036.390625 2002.601562 C 3036.390625 2002.601562 2784.070312 1957.921875 2648.710938 2054.96875 C 2648.710938 2054.96875 2574.578125 2115.398438 2513.339844 2083.980469 C 2452.109375 2052.558594 2436.800781 2001.800781 2386.039062 1991.320312 C 2386.039062 1991.320312 2310.449219 1973.339844 2265.851562 2014.429688 C 2265.851562 2014.429688 2294.199219 1972.78125 2248.539062 1957.570312 C 2231.988281 1952.050781 2154.621094 1981.589844 2160.628906 2044.390625 C 2163.898438 2089.160156 2186.289062 2089.441406 2208.128906 2082.339844 C 2208.128906 2082.339844 2124.808594 2269.941406 2304.011719 2301.929688 C 2308.679688 2302.761719 2313.410156 2303.179688 2318.148438 2303.179688 C 2324.488281 2303.210938 2335.601562 2303.210938 2351.21875 2303.210938 C 2354.621094 2303.210938 2357.808594 2304.828125 2359.820312 2307.578125 C 2368.828125 2319.808594 2394.679688 2353.128906 2404.75 2347.238281 C 2405.628906 2346.71875 2406.289062 2345.890625 2406.621094 2344.921875 C 2407.761719 2341.761719 2412.101562 2330.789062 2419.988281 2326.140625 L 2427.640625 2326.140625 C 2427.640625 2326.140625 2438.261719 2351.480469 2447.839844 2326.140625 C 2447.839844 2326.140625 2458.050781 2348.519531 2470.441406 2326.421875 C 2470.441406 2326.421875 2541.140625 2365.300781 2533.75 2307.160156 C 2533.078125 2287.558594 2533.179688 2276.320312 2569.78125 2281.050781 C 2576.949219 2281.828125 2582.328125 2287.960938 2582.171875 2295.171875 C 2582.101562 2322.429688 2588.488281 2390.640625 2648.710938 2445.011719 C 2648.710938 2445.011719 2673.441406 2477.941406 2664.261719 2521.851562 C 2663.808594 2524.039062 2662.730469 2525.960938 2661.230469 2527.449219 Z M 4466.410156 2305.289062 L 4504.339844 2320.398438 C 4511.730469 2323.640625 4519.949219 2327.089844 4528.859375 2330.621094 C 4537.851562 2334.171875 4547.53125 2337.808594 4557.761719 2341.410156 C 4570.078125 2345.75 4583.21875 2349.949219 4596.878906 2353.921875 C 4605.488281 2356.421875 4614.300781 2358.839844 4623.269531 2361.101562 C 4637.808594 2364.75 4652.75 2367.941406 4667.910156 2370.28125 C 4688.578125 2373.46875 4709.570312 2375.179688 4730.339844 2374.390625 C 4729.53125 2365.328125 4722.320312 2333.390625 4660.691406 2335.109375 C 4660.691406 2335.109375 4513.511719 2336.808594 4466.410156 2305.289062 Z M 2362.609375 2176.460938 C 2362.609375 2176.460938 2358.570312 2170.070312 2357.390625 2162.960938 C 2356.660156 2158.578125 2357.03125 2153.910156 2360.578125 2150.480469 C 2362.628906 2148.5 2365.75 2147.03125 2370.230469 2146.148438 C 2374.511719 2145.308594 2379.988281 2145.070312 2386.980469 2145.640625 C 2387.589844 2145.761719 2393.421875 2147 2401.171875 2149.78125 C 2405.320312 2151.269531 2410.019531 2153.21875 2414.789062 2155.679688 C 2419.808594 2158.269531 2424.921875 2161.390625 2429.46875 2165.371094 C 2432.359375 2167.890625 2435.050781 2170.710938 2437.359375 2173.921875 C 2444.019531 2183.191406 2447.558594 2195.46875 2444.328125 2212 C 2444.300781 2212.140625 2444.378906 2212.28125 2444.519531 2212.308594 C 2444.660156 2212.351562 2444.800781 2212.261719 2444.828125 2212.121094 C 2448.570312 2200.019531 2448.371094 2189.78125 2445.738281 2181.121094 C 2443.539062 2173.910156 2439.628906 2167.828125 2434.878906 2162.71875 C 2431.160156 2158.710938 2426.898438 2155.328125 2422.488281 2152.511719 C 2419.410156 2150.539062 2416.238281 2148.851562 2413.140625 2147.429688 C 2409.71875 2145.851562 2406.371094 2144.589844 2403.289062 2143.589844 C 2394.421875 2140.710938 2387.828125 2139.910156 2387.828125 2139.910156 L 2387.671875 2139.878906 L 2387.519531 2139.878906 C 2370.960938 2139.738281 2362.238281 2143.28125 2358.070312 2148.109375 C 2354.921875 2151.738281 2354.160156 2156.078125 2354.75 2160.359375 C 2355.910156 2168.789062 2362.191406 2176.761719 2362.191406 2176.761719 C 2362.269531 2176.871094 2362.429688 2176.898438 2362.550781 2176.820312 C 2362.671875 2176.738281 2362.691406 2176.570312 2362.609375 2176.460938 "/>
<path fill-rule="evenodd" fill="rgb(0%, 0%, 0%)" fill-opacity="1" d="M 688.359375 1674.589844 C 684.648438 1677.859375 664.253906 1692.738281 600.925781 1691.828125 C 600.925781 1691.828125 391.59375 1691.828125 371.269531 1691.828125 C 371.269531 1691.828125 284.894531 1692.300781 337.734375 1589.199219 C 337.734375 1589.199219 435.289062 1359.640625 436.304688 1335.75 C 436.304688 1335.75 473.902344 1159.351562 641.574219 1057.738281 C 641.574219 1057.738281 917.707031 677.28125 999.558594 528.140625 C 1018.25 494.011719 1045.261719 465.160156 1078.089844 444.269531 C 1160.898438 391.691406 1312.210938 338.148438 1424.378906 542.308594 C 1424.378906 542.308594 1649.089844 885.628906 1677.480469 990.28125 C 1680.730469 1002.429688 1685.761719 1014.039062 1692.421875 1024.71875 C 1712.28125 1056.890625 1751.011719 1124.648438 1762.570312 1182.078125 C 1762.570312 1182.078125 1768.238281 1287.089844 1818.390625 1286.148438 C 1818.390625 1286.148438 1885.441406 1272.609375 1924.921875 1341.789062 C 1924.921875 1341.789062 1924.921875 1341.789062 1927.269531 1343.679688 C 1939.921875 1330.851562 1956.988281 1322.96875 1975.78125 1322.96875 C 2014.710938 1322.96875 2046.320312 1356.820312 2046.320312 1398.519531 C 2046.320312 1440.210938 2014.710938 1474.058594 1975.78125 1474.058594 C 1968.671875 1474.058594 1955.960938 1472.019531 1955.960938 1472.019531 C 1953.398438 1479.828125 1953.011719 1489.398438 1952.738281 1497.53125 C 1952.738281 1497.53125 1954.261719 1512.460938 1991.5 1510.898438 C 1993.28125 1510.828125 1995.058594 1510.808594 1996.839844 1510.839844 C 2012.050781 1511.230469 2089.058594 1514.46875 2166.078125 1539.429688 C 2252.050781 1567.289062 2236.128906 1553.761719 2252.050781 1554.550781 C 2252.050781 1554.550781 2265.578125 1494.050781 2302.199219 1486.089844 L 2345.179688 1447.878906 C 2345.179688 1447.878906 2367.738281 1434.910156 2368.238281 1455.011719 C 2368.429688 1463.121094 2364.660156 1470.820312 2358.121094 1475.621094 C 2347.261719 1483.601562 2330.421875 1497.53125 2345.179688 1497.53125 C 2345.179688 1497.53125 2346.480469 1496.980469 2348.640625 1496.128906 C 2374.789062 1485.671875 2404.648438 1491.390625 2425.070312 1510.789062 C 2435.25 1520.601562 2443.210938 1533.089844 2442.390625 1548.070312 C 2442.089844 1553.398438 2442.390625 1558.75 2443.289062 1564.019531 C 2446.558594 1583.980469 2451.070312 1628.859375 2426.378906 1632.558594 C 2426.378906 1632.558594 2392.148438 1653.261719 2279.109375 1642.910156 C 2279.109375 1642.910156 2036.390625 1679.5 1946.488281 1677.421875 C 1930.578125 1676.96875 1915.140625 1671.96875 1901.988281 1663.011719 C 1886.851562 1652.660156 1864.160156 1636.710938 1846.871094 1622.210938 C 1846.871094 1622.210938 1846.511719 1622.339844 1845.808594 1622.578125 C 1827.699219 1604.96875 1795.960938 1570.828125 1761.320312 1531.601562 C 1742.628906 1510.441406 1723.140625 1487.78125 1704.460938 1465.449219 C 1691.628906 1450.101562 1679.179688 1434.921875 1667.691406 1420.441406 C 1646.050781 1393.179688 1627.828125 1368.441406 1617.109375 1349.761719 C 1603.109375 1325.578125 1592.339844 1301.460938 1584.179688 1280.109375 C 1567.988281 1237.71875 1562.109375 1206.148438 1562.109375 1206.148438 C 1562.089844 1206.050781 1561.988281 1205.980469 1561.890625 1205.988281 C 1561.78125 1206.011719 1561.71875 1206.109375 1561.730469 1206.210938 C 1561.730469 1206.210938 1566.839844 1238.019531 1582.160156 1280.851562 C 1589.910156 1302.511719 1600.300781 1326.96875 1613.898438 1351.578125 C 1624.460938 1370.519531 1642.308594 1395.808594 1663.929688 1423.410156 C 1675.359375 1437.988281 1687.839844 1453.230469 1700.820312 1468.511719 C 1719.699219 1490.738281 1739.621094 1513.101562 1758.730469 1533.929688 C 1794.011719 1572.378906 1826.621094 1605.550781 1845.230469 1622.78125 C 1833.558594 1626.679688 1762.390625 1648.488281 1720.5 1616.078125 C 1715.320312 1612.058594 1709.421875 1609.058594 1703.109375 1607.238281 C 1682.101562 1601.109375 1634.738281 1579.808594 1627.960938 1510.769531 C 1627.960938 1510.769531 1607.628906 1494.488281 1587.5 1488.371094 C 1581.78125 1486.628906 1577.121094 1482.429688 1574.789062 1476.921875 C 1572.460938 1471.410156 1572.699219 1465.140625 1575.441406 1459.820312 C 1576.480469 1457.761719 1577.789062 1455.640625 1579.398438 1453.460938 C 1579.398438 1453.460938 1568.261719 1431.171875 1573.828125 1430.371094 C 1573.828125 1430.371094 1557.789062 1418.558594 1570.300781 1412.800781 C 1570.300781 1412.800781 1565.078125 1381.570312 1557.789062 1369.691406 C 1557.789062 1369.691406 1544.769531 1347.96875 1573.828125 1335.75 C 1573.828125 1335.75 1565.078125 1323.019531 1557.789062 1311.871094 C 1557.789062 1311.871094 1465.441406 1338.640625 1386.160156 1156.839844 C 1386.160156 1156.839844 1239.351562 1030.578125 1319.21875 909.609375 C 1319.21875 909.609375 1319.359375 779.820312 1269.378906 725.351562 C 1267.109375 722.871094 1264.988281 720.269531 1263.03125 717.558594 C 1256.050781 707.941406 1234.609375 685.980469 1202.5 721.378906 C 1202.5 721.378906 1024.671875 1002.070312 753.351562 1144.109375 C 753.351562 1144.109375 712.707031 1216.109375 563.328125 1412.800781 C 563.328125 1412.800781 456.628906 1535.488281 580.601562 1589.199219 C 580.601562 1589.199219 667.992188 1642.910156 715.753906 1642.910156 C 715.753906 1642.910156 720.210938 1673.960938 689.019531 1673.960938 C 689.019531 1673.960938 688.960938 1674.019531 688.824219 1674.148438 C 634.65625 1663.589844 593.480469 1649.960938 562.667969 1634.378906 C 527.261719 1616.480469 505.652344 1596.011719 493.910156 1574.480469 C 482.042969 1552.710938 480.351562 1529.910156 484.566406 1507.808594 C 487.417969 1492.859375 492.964844 1478.230469 499.910156 1464.441406 C 507.058594 1450.238281 515.6875 1436.929688 524.433594 1425.101562 C 547.320312 1394.148438 571.019531 1373.328125 571.019531 1373.328125 L 571.160156 1373.191406 C 586.761719 1356.710938 613.128906 1323.050781 640.277344 1286.839844 C 687.660156 1223.628906 737.519531 1152.699219 737.519531 1152.699219 C 737.578125 1152.621094 737.5625 1152.5 737.476562 1152.441406 C 737.390625 1152.378906 737.273438 1152.398438 737.214844 1152.488281 C 737.214844 1152.488281 686.15625 1222.519531 637.925781 1285.050781 C 610.4375 1320.691406 583.902344 1353.910156 568.160156 1370.171875 C 566.742188 1371.398438 543.246094 1391.941406 520.601562 1422.261719 C 511.636719 1434.25 502.808594 1447.78125 495.539062 1462.238281 C 488.402344 1476.441406 482.765625 1491.53125 479.9375 1506.941406 C 475.691406 1530.039062 477.722656 1553.859375 490.367188 1576.429688 C 502.628906 1598.320312 524.933594 1619.121094 561.429688 1636.878906 C 592.527344 1652.011719 633.992188 1664.929688 688.359375 1674.589844 Z M 1693.910156 1152.769531 C 1693.910156 1152.769531 1707.300781 1157.230469 1712.589844 1184.421875 C 1715.128906 1197.511719 1715.800781 1215.851562 1712.210938 1241.46875 L 1712.160156 1241.839844 L 1712.390625 1242.140625 C 1712.390625 1242.140625 1715.210938 1245.871094 1718.160156 1257.371094 C 1719.691406 1263.320312 1721.238281 1271.320312 1722.449219 1281.921875 L 1722.539062 1282.640625 L 1723.21875 1282.890625 C 1723.21875 1282.890625 1759.621094 1296.71875 1790.429688 1343.269531 C 1804.289062 1364.21875 1817.03125 1391.769531 1824.808594 1427.699219 L 1824.910156 1428.160156 L 1825.191406 1428.539062 C 1825.191406 1428.539062 1844.179688 1454.480469 1872.121094 1483.300781 C 1882.738281 1494.25 1894.660156 1505.609375 1907.328125 1516.121094 C 1929.199219 1534.261719 1953.28125 1549.808594 1976.601562 1556.570312 L 1976.628906 1556.578125 C 1976.648438 1556.589844 2012.21875 1565.921875 2060.390625 1573.210938 C 2086.25 1577.121094 2115.738281 1580.429688 2145.300781 1581.421875 C 2185.671875 1582.78125 2226.140625 1579.78125 2257.640625 1568.058594 C 2257.738281 1568.03125 2257.789062 1567.921875 2257.761719 1567.820312 C 2257.71875 1567.71875 2257.609375 1567.671875 2257.519531 1567.710938 C 2225.949219 1578.871094 2185.578125 1581.171875 2145.390625 1579.210938 C 2115.960938 1577.78125 2086.640625 1574.050781 2060.921875 1569.828125 C 2014.050781 1562.140625 1979.210938 1552.78125 1977.808594 1552.398438 C 1955.070312 1545.648438 1931.738281 1530.171875 1910.429688 1512.378906 C 1897.941406 1501.949219 1886.140625 1490.71875 1875.601562 1479.921875 C 1849.75 1453.421875 1831.46875 1429.480469 1829.039062 1426.269531 C 1820.789062 1390.070312 1807.648438 1362.320312 1793.390625 1341.289062 C 1763.980469 1297.890625 1729.921875 1283 1724.730469 1280.921875 C 1723.371094 1270.570312 1721.730469 1262.71875 1720.140625 1256.851562 C 1717.421875 1246.800781 1714.820312 1242.480469 1714.058594 1241.351562 C 1717.230469 1215.671875 1716.28125 1197.320312 1713.53125 1184.230469 C 1707.738281 1156.699219 1694.03125 1152.410156 1694.03125 1152.410156 C 1693.929688 1152.378906 1693.820312 1152.441406 1693.789062 1152.539062 C 1693.761719 1152.640625 1693.808594 1152.738281 1693.910156 1152.769531 "/>
<path fill-rule="evenodd" fill="rgb(0%, 0%, 0%)" fill-opacity="1" d="M 3088.121094 1269.078125 C 3088.988281 1268.398438 3089.53125 1268.140625 3089.53125 1268.140625 C 3089.050781 1268.46875 3088.578125 1268.78125 3088.121094 1269.078125 C 3084.179688 1272.171875 3073.328125 1283.890625 3073.328125 1319.25 C 3073.328125 1319.25 3013.121094 1354.710938 2993.308594 1392.078125 C 3011.019531 1381.398438 3024.691406 1372.609375 3041.75 1358.261719 C 3049.851562 1351.441406 3058.710938 1343.371094 3069.171875 1333.28125 C 3076.960938 1325.761719 3085.671875 1317.160156 3095.539062 1307.070312 C 3104.261719 1298.390625 3112.511719 1288.601562 3120.378906 1278.359375 C 3132.101562 1263.109375 3142.859375 1246.75 3152.339844 1230.871094 C 3179.019531 1186.199219 3195.601562 1145.441406 3195.601562 1145.441406 C 3195.640625 1145.328125 3195.78125 1145.269531 3195.890625 1145.308594 C 3196.011719 1145.359375 3196.070312 1145.488281 3196.03125 1145.609375 C 3196.03125 1145.609375 3184.148438 1179.371094 3163.378906 1219.441406 C 3158.261719 1229.300781 3152.609375 1239.53125 3146.441406 1249.71875 C 3138.511719 1262.828125 3129.769531 1275.898438 3120.28125 1288 C 3113.769531 1296.300781 3106.859375 1304.109375 3099.730469 1311.261719 C 3089.589844 1321.179688 3080.710938 1329.679688 3072.671875 1337 C 3061.828125 1346.878906 3052.589844 1354.679688 3044.148438 1361.230469 C 3025.921875 1375.359375 3011.449219 1383.601562 2992.378906 1393.898438 C 2991.988281 1394.691406 2991.609375 1395.480469 2991.261719 1396.28125 C 2991.261719 1396.28125 2944.050781 1414.371094 2845.261719 1540.539062 C 2838.640625 1548.980469 2829.109375 1554.628906 2818.53125 1556.390625 C 2774.390625 1563.738281 2656.28125 1583.839844 2641.550781 1591.070312 C 2641.058594 1591.390625 2640.53125 1591.660156 2639.980469 1591.859375 C 2632.929688 1594.558594 2628.421875 1603.441406 2629.800781 1610.070312 C 2630.289062 1612.429688 2632.371094 1614.121094 2634.78125 1614.121094 C 2644.761719 1614.140625 2675.621094 1614.140625 2675.621094 1614.140625 C 2675.621094 1614.140625 2661.21875 1635.730469 2713.058594 1630.691406 C 2713.058594 1630.691406 2764.171875 1622.171875 2757.398438 1628.101562 C 2737.578125 1646.320312 2719.019531 1665.78125 2706.898438 1671.710938 C 2706.898438 1671.710938 2643.550781 1691.871094 2584.519531 1702.660156 C 2525.480469 1713.460938 2496.28125 1713.171875 2489.488281 1713.460938 C 2489.488281 1713.460938 2470.828125 1716.660156 2479.410156 1725.078125 C 2479.410156 1725.078125 2433.449219 1728.121094 2449.160156 1751.359375 C 2455.308594 1760.441406 2465.738281 1765.671875 2476.691406 1765.171875 C 2493.871094 1764.390625 2523.730469 1762.589844 2537.230469 1759.050781 C 2537.230469 1759.050781 2512.800781 1771.859375 2519.761719 1780.199219 C 2521.421875 1782.179688 2524.011719 1783.109375 2526.539062 1782.640625 C 2537.929688 1780.480469 2584.480469 1771.148438 2603.671875 1759.050781 C 2603.671875 1759.050781 2716.46875 1760.46875 2737.910156 1731.558594 C 2737.910156 1727.511719 2739.960938 1723.730469 2743.351562 1721.5 C 2769.429688 1704.421875 2882.761719 1630.890625 2938.640625 1606.628906 C 2948.019531 1602.609375 2956.859375 1597.460938 2964.980469 1591.289062 C 2992 1570.71875 3050.929688 1523.800781 3070.648438 1493.050781 C 3075.878906 1484.910156 3081.910156 1477.320312 3088.640625 1470.378906 C 3105.089844 1453.421875 3132.820312 1426.648438 3149.410156 1420.421875 C 3163.109375 1407.960938 3186.109375 1386.148438 3212.269531 1357.699219 C 3221.980469 1347.140625 3232.121094 1335.679688 3242.421875 1323.46875 C 3254.929688 1308.621094 3267.609375 1292.601562 3280.011719 1275.75 C 3287.910156 1265.03125 3295.699219 1253.96875 3303.230469 1242.609375 C 3315.589844 1223.96875 3327.21875 1204.550781 3337.398438 1184.519531 C 3352.949219 1153.910156 3365.199219 1121.980469 3371.519531 1089.46875 C 3371.539062 1089.351562 3371.660156 1089.261719 3371.78125 1089.289062 C 3371.910156 1089.308594 3371.988281 1089.429688 3371.96875 1089.550781 C 3366.789062 1122.460938 3355.800781 1155.078125 3341.078125 1186.328125 C 3338.839844 1191.089844 3336.511719 1195.808594 3334.109375 1200.511719 C 3338.191406 1198.390625 3349.238281 1192.230469 3364.671875 1180.199219 C 3370.609375 1175.570312 3377.191406 1170.078125 3384.351562 1163.660156 C 3388.828125 1159.640625 3393.511719 1155.238281 3398.449219 1150.519531 C 3402.871094 1146.308594 3407.488281 1141.851562 3412.269531 1137.070312 C 3418.679688 1130.640625 3425.378906 1123.691406 3432.269531 1116.058594 C 3438.460938 1109.21875 3444.839844 1101.941406 3451.269531 1094 C 3451.351562 1093.898438 3451.488281 1093.878906 3451.601562 1093.949219 C 3451.699219 1094.03125 3451.71875 1094.171875 3451.648438 1094.28125 C 3445.988281 1102.828125 3440.410156 1110.789062 3434.808594 1118.171875 C 3430.71875 1123.570312 3426.648438 1128.640625 3422.601562 1133.410156 C 3418.191406 1138.609375 3413.839844 1143.46875 3409.519531 1147.941406 C 3406.390625 1151.191406 3403.28125 1154.230469 3400.210938 1157.089844 C 3396.011719 1160.988281 3391.878906 1164.539062 3387.898438 1167.800781 C 3383.398438 1171.480469 3379.078125 1174.78125 3374.960938 1177.75 C 3365.328125 1184.691406 3356.929688 1189.78125 3350.210938 1193.480469 C 3341.738281 1198.128906 3335.960938 1200.511719 3333.660156 1201.390625 C 3325.828125 1216.601562 3317.191406 1231.429688 3308.011719 1245.738281 C 3300.589844 1257.300781 3292.820312 1268.511719 3284.808594 1279.300781 C 3272.261719 1296.21875 3259.191406 1312.101562 3246.300781 1326.800781 C 3231.871094 1343.25 3217.621094 1358.171875 3204.429688 1371.289062 C 3183.078125 1392.53125 3164.488281 1409.050781 3152.160156 1419.550781 L 3152.230469 1419.53125 C 3154.140625 1419.070312 3156.148438 1419.480469 3157.71875 1420.660156 C 3176 1433.789062 3307.289062 1521.238281 3382.960938 1382.890625 C 3384.761719 1379.589844 3387.839844 1377.171875 3391.480469 1376.199219 C 3411.441406 1370.71875 3474.578125 1350.949219 3437.839844 1328.769531 C 3434.101562 1326.398438 3432.929688 1321.488281 3435.210938 1317.691406 C 3442.75 1305.011719 3458.519531 1279.421875 3468.910156 1267.351562 C 3475.398438 1259.921875 3478.328125 1250.03125 3476.929688 1240.261719 C 3475.339844 1229.289062 3469.539062 1217.28125 3452.570312 1213.160156 C 3452.570312 1213.160156 3385.171875 1193.628906 3435.269531 1134.550781 C 3437.300781 1132.148438 3440.179688 1130.640625 3443.308594 1130.308594 C 3471.808594 1126.738281 3620.78125 1102.058594 3705.160156 969 C 3705.160156 969 3750.179688 899.410156 3783.121094 878.460938 C 3785.460938 877 3787.679688 875.378906 3789.78125 873.601562 C 3799.320312 865.121094 3823.910156 840.058594 3837.621094 795.5 C 3837.621094 795.5 3911.101562 625.539062 3992.429688 773.789062 C 4009.011719 793.230469 4030.320312 817.648438 4052.738281 841.769531 C 4075.289062 866.03125 4098.949219 890 4120.03125 908.269531 C 4120.03125 908.269531 4124.921875 912.699219 4124.910156 912.699219 C 4132.480469 919.871094 4157.628906 943.421875 4184.53125 965.570312 C 4198.980469 977.46875 4213.921875 988.96875 4226.921875 997.269531 C 4233.230469 1001.261719 4239.210938 1005.730469 4244.820312 1010.621094 C 4250.441406 1015.511719 4255.679688 1020.828125 4260.511719 1026.53125 C 4272.03125 1040.128906 4288.539062 1058.910156 4305.648438 1075.980469 C 4316.878906 1087.171875 4328.359375 1097.628906 4338.859375 1105.371094 C 4341.5 1107.300781 4344.070312 1109.339844 4346.558594 1111.46875 C 4349.039062 1113.589844 4351.449219 1115.808594 4353.769531 1118.121094 C 4361.03125 1125.238281 4372.789062 1136.550781 4385.289062 1147.398438 C 4392.699219 1153.839844 4400.378906 1160.109375 4407.53125 1165.230469 C 4416.429688 1171.550781 4424.621094 1178.761719 4432 1186.730469 C 4439.371094 1194.699219 4445.921875 1203.429688 4451.53125 1212.789062 C 4468.519531 1241.140625 4494.660156 1282.410156 4523.21875 1319.339844 C 4542.089844 1343.730469 4561.988281 1366.238281 4581.089844 1381.75 C 4588.179688 1387.511719 4594.921875 1393.660156 4601.289062 1400.179688 C 4607.648438 1406.699219 4613.640625 1413.578125 4619.21875 1420.789062 C 4645.410156 1454.558594 4667.929688 1485.480469 4679.46875 1513.238281 C 4690.621094 1540.011719 4691.640625 1563.878906 4676.359375 1584.539062 C 4657.238281 1610.398438 4612.078125 1631.269531 4527.941406 1646.300781 C 4519.320312 1650.019531 4493.71875 1660.191406 4477.609375 1657.230469 C 4458.011719 1653.628906 4447.761719 1659.308594 4458.011719 1680.980469 C 4458.011719 1680.980469 4455.300781 1724.261719 4599.28125 1713.460938 C 4599.28125 1713.460938 4777.808594 1699.148438 4818.128906 1695.46875 C 4818.128906 1695.46875 4849.46875 1696.570312 4856.980469 1667.921875 C 4859.238281 1659.28125 4858.410156 1650.121094 4854.628906 1642.03125 C 4844.191406 1620.148438 4812.460938 1554.921875 4760.53125 1459.390625 C 4760.53125 1459.390625 4706.351562 1362.460938 4698.800781 1325.210938 C 4698.769531 1325.058594 4698.738281 1324.910156 4698.71875 1324.761719 C 4697.398438 1317.839844 4671.449219 1190.21875 4531.140625 1059.511719 C 4520.890625 1049.988281 4511.609375 1039.46875 4503.441406 1028.109375 C 4472.058594 984.378906 4392.128906 870.480469 4356.238281 798.910156 C 4344.878906 776.171875 4330.371094 755.140625 4313.160156 736.441406 C 4282.839844 703.46875 4237.78125 651.03125 4222.800781 615.410156 C 4221.5 612.210938 4220.46875 608.910156 4219.71875 605.539062 C 4212.699219 575.550781 4156.269531 365.089844 3945.210938 400.210938 C 3915.96875 405 3888.191406 416.339844 3863.941406 433.378906 C 3811.929688 470.261719 3698.738281 555.058594 3580.5 672.988281 C 3572.898438 680.578125 3564.640625 687.488281 3555.808594 693.609375 C 3513.269531 723.269531 3382.691406 816.191406 3367.621094 849.859375 C 3350.859375 887.328125 3282.488281 958.378906 3273.46875 1029.839844 C 3272.078125 1040.761719 3266.410156 1050.691406 3257.710938 1057.441406 C 3233.5 1076.058594 3209.179688 1095.460938 3197.808594 1133.710938 C 3197.808594 1133.710938 3139.308594 1122.511719 3126.871094 1176.03125 C 3126.871094 1176.03125 3126.589844 1175.480469 3126.011719 1174.5 C 3119.371094 1162.558594 3107.339844 1154.609375 3093.75 1153.191406 C 3080.171875 1151.761719 3066.75 1157.050781 3057.78125 1167.339844 C 3045.628906 1181.308594 3035.640625 1199.988281 3037.660156 1221.921875 C 3037.808594 1223.441406 3038.039062 1224.949219 3038.371094 1226.449219 C 3040.121094 1234.390625 3054.339844 1290.921875 3088.121094 1269.078125 Z M 3994.941406 778.449219 C 3996.78125 781.941406 3998.609375 785.589844 4000.460938 789.410156 C 4006.328125 801.519531 4013.46875 812.96875 4021.769531 823.570312 C 4045.199219 853.320312 4095.808594 913.71875 4160.859375 969 C 4238.398438 1034.910156 4311.210938 1111.640625 4345.101562 1139.378906 C 4356.03125 1148.230469 4365.839844 1158.371094 4374.308594 1169.601562 C 4416.421875 1225.199219 4532.441406 1376.71875 4574.761719 1413.089844 C 4582.929688 1420.070312 4590.160156 1428.078125 4596.269531 1436.921875 C 4616.070312 1465.628906 4645.769531 1521.480469 4599.28125 1547.078125 C 4541.640625 1578.820312 4479.921875 1618.800781 4442.429688 1616.988281 C 4437.679688 1616.78125 4433.191406 1619.160156 4430.710938 1623.21875 C 4428.230469 1627.28125 4428.148438 1632.371094 4430.511719 1636.5 C 4433.050781 1640.988281 4438.25 1644.511719 4448.101562 1644.988281 C 4477.609375 1646.429688 4517.210938 1644.988281 4530.878906 1644.988281 L 4530.78125 1645.039062 C 4612.03125 1629.238281 4655.769531 1608.488281 4674.199219 1582.960938 C 4688.601562 1563 4687.199219 1540.140625 4676.261719 1514.589844 C 4664.53125 1487.21875 4641.921875 1456.800781 4615.640625 1423.589844 C 4610.109375 1416.558594 4604.179688 1409.871094 4597.878906 1403.53125 C 4591.589844 1397.199219 4584.941406 1391.230469 4577.949219 1385.648438 C 4558.46875 1370.039062 4538.078125 1347.398438 4518.828125 1322.761719 C 4489.921875 1285.78125 4463.570312 1244.320312 4446.398438 1215.878906 L 4446.398438 1215.871094 C 4441 1206.859375 4434.699219 1198.449219 4427.621094 1190.769531 C 4420.539062 1183.089844 4412.671875 1176.121094 4404.121094 1170.011719 L 4404.109375 1170.011719 C 4396.839844 1164.761719 4389.03125 1158.339844 4381.5 1151.75 C 4368.941406 1140.761719 4357.148438 1129.289062 4349.859375 1122.078125 L 4349.851562 1122.070312 C 4347.640625 1119.839844 4345.339844 1117.699219 4342.96875 1115.648438 C 4340.589844 1113.601562 4338.140625 1111.640625 4335.609375 1109.769531 L 4335.609375 1109.761719 C 4324.960938 1101.820312 4313.328125 1091.121094 4301.96875 1079.640625 C 4284.871094 1062.359375 4268.390625 1043.339844 4256.890625 1029.570312 C 4252.261719 1024.011719 4247.21875 1018.820312 4241.828125 1014.03125 C 4236.421875 1009.238281 4230.660156 1004.871094 4224.570312 1000.941406 L 4224.570312 1000.929688 C 4211.511719 992.441406 4196.511719 980.71875 4182.03125 968.578125 C 4155.261719 946.109375 4130.289062 922.210938 4122.769531 914.941406 L 4118.03125 910.550781 C 4097.078125 892.019531 4073.570312 867.75 4051.210938 843.171875 C 4030.511719 820.410156 4010.78125 797.390625 3994.941406 778.449219 "/>
<path fill-rule="evenodd" fill="rgb(0%, 0%, 0%)" fill-opacity="1" d="M 878.648438 3026.019531 C 876.867188 3024.148438 875.351562 3022.050781 874.136719 3019.78125 C 860.433594 2993.78125 814.1875 2899.578125 826.472656 2836.5 C 828.332031 2827.019531 828.476562 2817.289062 826.902344 2807.761719 C 820.992188 2772.230469 805.984375 2689.019531 788.648438 2642.589844 C 786.855469 2637.859375 785.597656 2632.941406 784.902344 2627.921875 C 781.917969 2605.550781 774.765625 2541.070312 784.523438 2499.171875 C 785.480469 2495.160156 785.628906 2490.988281 784.960938 2486.910156 C 780.015625 2454.089844 763.179688 2307.640625 856.746094 2307.640625 C 856.746094 2307.640625 987.492188 2281.320312 1020.230469 2255.441406 C 1047.359375 2233.980469 1053.539062 2212.738281 1053.230469 2159.398438 C 1053.210938 2154.921875 1051.78125 2150.550781 1049.148438 2146.921875 C 1035.28125 2127.660156 1021.300781 2102.179688 1020.800781 2077.191406 C 1020.800781 2077.191406 992.773438 2066.179688 993.777344 2026.140625 C 993.777344 2026.140625 992.101562 1873.039062 1084 1855.398438 C 1084 1855.398438 1035.050781 1820.300781 1070.128906 1798.109375 C 1101.039062 1778.550781 1143.019531 1781.789062 1163.328125 1785.769531 C 1171.289062 1787.460938 1178.789062 1790.878906 1185.289062 1795.789062 C 1200.628906 1807.421875 1213.269531 1828.820312 1177.679688 1854.71875 C 1177.679688 1854.71875 1292.210938 1871.96875 1273.601562 2025.628906 C 1273.601562 2025.628906 1265.808594 2087.398438 1245.269531 2091.820312 C 1241.578125 2092.601562 1238.710938 2095.488281 1237.960938 2099.191406 C 1235.550781 2110.75 1229.160156 2133.269531 1213.46875 2152.328125 C 1213.46875 2152.328125 1202.140625 2229.519531 1233.289062 2255.441406 C 1266.550781 2283.109375 1281.371094 2286.921875 1397.75 2305.71875 C 1407.929688 2307.371094 1417.359375 2312.128906 1424.730469 2319.351562 C 1445.550781 2339.949219 1478.191406 2390.628906 1454.441406 2495.160156 C 1452.5 2503.628906 1452.238281 2512.390625 1453.671875 2520.960938 C 1458.601562 2550.820312 1465.921875 2632.351562 1424.570312 2737.339844 C 1420.640625 2747.28125 1419.128906 2758.019531 1420.171875 2768.660156 C 1423.839844 2811.78125 1427.820312 2931.679688 1373.710938 3031.929688 C 1373.269531 3032.738281 1373.039062 3033.640625 1373.03125 3034.558594 C 1373.03125 3035.46875 1373.019531 3036.640625 1373 3037.488281 C 1372.730469 3046.171875 1371.351562 3067.050781 1365.03125 3090.960938 C 1360.800781 3106.988281 1354.371094 3124.410156 1344.359375 3140.390625 C 1342.960938 3142.628906 1341.769531 3145 1340.769531 3147.441406 C 1339.78125 3149.890625 1338.988281 3152.421875 1338.429688 3155.011719 L 1338.429688 3155.019531 C 1336.761719 3163.171875 1334.578125 3176.761719 1334.679688 3193.921875 C 1334.75 3205.449219 1335.910156 3218.570312 1338.710938 3232.71875 C 1339.28125 3235.488281 1339.339844 3238.300781 1338.890625 3241.039062 C 1338.449219 3243.789062 1337.511719 3246.46875 1336.089844 3248.921875 C 1329.519531 3260.261719 1317.109375 3280.550781 1303.929688 3296.949219 C 1298.628906 3303.550781 1293.199219 3309.519531 1287.96875 3314.011719 C 1281.949219 3315.601562 1276.769531 3317.25 1273.601562 3318.851562 C 1273.601562 3318.851562 1242.449219 3341.679688 1228.390625 3341.160156 C 1235.378906 3335.519531 1239.230469 3329.851562 1241.050781 3324.488281 C 1244.128906 3315.410156 1241.480469 3307.128906 1237.828125 3300.929688 C 1244.210938 3304.011719 1249.800781 3305.660156 1254.609375 3306.21875 C 1267.570312 3307.71875 1275.261719 3301.648438 1278.410156 3292.851562 C 1281.210938 3285.058594 1280.328125 3274.820312 1276.140625 3265.738281 C 1270.78125 3254.121094 1260.148438 3244.339844 1245.769531 3244.03125 C 1246.019531 3240 1243.390625 3235.558594 1238.578125 3232.191406 C 1233.371094 3228.539062 1225.691406 3226.101562 1217.089844 3226.859375 C 1216.960938 3226.871094 1216.871094 3226.980469 1216.878906 3227.109375 C 1216.878906 3227.230469 1216.988281 3227.328125 1217.121094 3227.320312 C 1223.878906 3227.128906 1229.929688 3228.898438 1234.558594 3231.609375 C 1240.808594 3235.269531 1244.488281 3240.578125 1242.988281 3244.949219 L 1242.460938 3246.648438 L 1244.230469 3246.648438 C 1257.878906 3246.988281 1267.429688 3256.53125 1271.960938 3267.558594 C 1275.230469 3275.519531 1275.871094 3284.289062 1273.289062 3290.929688 C 1270.761719 3297.398438 1264.921875 3301.460938 1255.300781 3300.308594 C 1250.429688 3299.730469 1244.691406 3297.898438 1237.941406 3294.550781 C 1234.078125 3292.621094 1229.898438 3290.238281 1225.398438 3287.28125 L 1222.011719 3284.648438 C 1221.601562 3284.351562 1221.160156 3284.191406 1220.71875 3284.128906 C 1220.269531 3284.058594 1219.808594 3284.128906 1219.371094 3284.289062 C 1218.929688 3284.449219 1218.558594 3284.738281 1218.261719 3285.078125 C 1217.960938 3285.421875 1217.761719 3285.839844 1217.660156 3286.300781 L 1218.660156 3288.898438 C 1221.789062 3291.238281 1224.78125 3293.328125 1227.640625 3295.160156 C 1232.179688 3299.269531 1242.089844 3310.121094 1238.359375 3323.660156 C 1236.859375 3329.078125 1233.261719 3334.890625 1226.441406 3340.898438 C 1226.421875 3340.910156 1226.390625 3340.921875 1226.359375 3340.921875 C 1225.730469 3341.109375 1221.800781 3344.128906 1216.320312 3348.398438 C 1215.628906 3348.828125 1212.980469 3350.871094 1212.988281 3350.878906 C 1198.539062 3361.691406 1173.628906 3376.289062 1148.839844 3369.929688 C 1148.839844 3369.929688 1135.351562 3363.191406 1132.25 3344.109375 C 1132.21875 3343.949219 1132.199219 3343.789062 1132.191406 3343.621094 C 1132.289062 3341.550781 1134.148438 3311.820312 1134.480469 3299.398438 C 1134.769531 3287.980469 1134.738281 3277.871094 1134.359375 3268.921875 C 1134.808594 3263.148438 1135.320312 3257.839844 1135.890625 3252.949219 C 1136.679688 3246.089844 1137.550781 3240.078125 1138.609375 3234.828125 C 1139.621094 3229.78125 1140.738281 3225.429688 1142.050781 3221.738281 C 1143.808594 3216.769531 1145.808594 3212.980469 1148.121094 3210.191406 C 1153.78125 3203.351562 1161.03125 3202.710938 1168.890625 3204.78125 C 1176.148438 3206.691406 1183.871094 3210.808594 1191.339844 3215.011719 C 1191.449219 3215.078125 1191.589844 3215.039062 1191.660156 3214.941406 C 1191.730469 3214.828125 1191.691406 3214.691406 1191.589844 3214.621094 C 1183.808594 3209.320312 1175.75 3204.058594 1168.019531 3201.730469 C 1155.53125 3197.949219 1143.78125 3201.28125 1136.101562 3222.441406 C 1134.28125 3227.460938 1132.691406 3233.550781 1131.511719 3240.851562 C 1129.480469 3229.148438 1126.691406 3220.949219 1123.488281 3215.390625 C 1117.878906 3205.621094 1110.878906 3203.421875 1102.941406 3204.960938 C 1093.761719 3206.738281 1083.21875 3213.871094 1071.921875 3219.199219 C 1071.800781 3219.25 1071.75 3219.378906 1071.800781 3219.5 C 1071.851562 3219.621094 1071.980469 3219.671875 1072.101562 3219.621094 C 1081.371094 3216.089844 1090.238281 3211.371094 1098.128906 3209.078125 C 1106.910156 3206.519531 1114.339844 3207.210938 1119.53125 3217.53125 C 1121.339844 3221.140625 1122.871094 3225.859375 1124.179688 3231.921875 C 1125.121094 3236.308594 1125.898438 3241.390625 1126.609375 3247.238281 C 1127.351562 3253.300781 1127.949219 3260.191406 1128.511719 3268.011719 C 1128.820312 3272.210938 1129.109375 3276.671875 1129.378906 3281.410156 C 1129.449219 3284.980469 1129.578125 3288.699219 1129.761719 3292.570312 C 1129.921875 3296.089844 1130.128906 3299.730469 1130.390625 3303.488281 C 1130.871094 3316.28125 1131.769531 3330.328125 1131.871094 3346.480469 C 1131.871094 3346.609375 1131.738281 3347.410156 1131.871094 3347.410156 C 1132 3347.421875 1131.648438 3369.929688 1108.398438 3369.929688 C 1108.398438 3369.929688 1075.019531 3370.121094 1055.820312 3349.289062 C 1055.160156 3348.71875 1054.828125 3348.308594 1053.75 3347.28125 C 1041.308594 3339.011719 1035.449219 3330.980469 1033.429688 3323.660156 C 1029.699219 3310.121094 1039.609375 3299.269531 1044.148438 3295.160156 C 1047.011719 3293.328125 1049.988281 3291.238281 1053.121094 3288.898438 L 1054.128906 3286.300781 C 1054.019531 3285.839844 1053.828125 3285.421875 1053.53125 3285.078125 C 1053.230469 3284.738281 1052.859375 3284.449219 1052.421875 3284.289062 C 1051.980469 3284.128906 1051.519531 3284.058594 1051.070312 3284.128906 C 1050.621094 3284.191406 1050.179688 3284.351562 1049.808594 3284.628906 L 1049.78125 3284.648438 L 1046.390625 3287.28125 C 1041.890625 3290.238281 1037.710938 3292.621094 1033.851562 3294.550781 C 1027.101562 3297.898438 1021.359375 3299.730469 1016.488281 3300.308594 C 1006.859375 3301.460938 1001.019531 3297.398438 998.503906 3290.929688 C 995.914062 3284.289062 996.554688 3275.519531 999.828125 3267.558594 C 1004.359375 3256.53125 1013.898438 3246.988281 1027.550781 3246.648438 L 1029.328125 3246.648438 L 1028.800781 3244.949219 C 1027.289062 3240.578125 1030.980469 3235.269531 1037.230469 3231.609375 C 1041.851562 3228.898438 1047.910156 3227.128906 1054.671875 3227.320312 C 1054.789062 3227.328125 1054.898438 3227.230469 1054.910156 3227.109375 C 1054.921875 3226.980469 1054.820312 3226.871094 1054.691406 3226.859375 C 1046.089844 3226.101562 1038.421875 3228.539062 1033.210938 3232.191406 C 1028.398438 3235.558594 1025.761719 3240 1026.019531 3244.03125 C 1011.628906 3244.339844 1001.011719 3254.121094 995.648438 3265.738281 C 991.453125 3274.820312 990.574219 3285.058594 993.371094 3292.851562 C 996.53125 3301.648438 1004.21875 3307.71875 1017.179688 3306.21875 C 1021.980469 3305.660156 1027.578125 3304.011719 1033.960938 3300.921875 C 1030.308594 3307.140625 1027.660156 3315.410156 1030.738281 3324.488281 C 1033.230469 3331.828125 1039.550781 3339.761719 1052.5 3347.410156 C 1044.789062 3348.121094 1010.089844 3349.460938 993.546875 3318.851562 C 993.546875 3318.851562 988.914062 3317.378906 980.882812 3315.160156 C 975.84375 3310.730469 970.644531 3304.371094 965.609375 3297.238281 C 954.542969 3281.558594 944.34375 3262.121094 938.828125 3250.929688 C 937.617188 3248.488281 936.929688 3245.859375 936.753906 3243.191406 C 936.574219 3240.539062 936.929688 3237.859375 937.800781 3235.289062 C 941.660156 3223.738281 943.097656 3212.089844 942.835938 3200.871094 C 942.648438 3192.921875 941.617188 3185.179688 940.035156 3177.839844 C 938.328125 3169.921875 935.976562 3162.460938 933.386719 3155.699219 C 928.109375 3141.929688 921.839844 3131.039062 917.933594 3124.820312 L 917.921875 3124.800781 C 916.859375 3123.179688 916 3121.46875 915.363281 3119.671875 C 914.722656 3117.871094 914.289062 3116 914.089844 3114.078125 C 912.773438 3102.128906 909.214844 3089.519531 904.769531 3077.699219 C 895.765625 3053.761719 883.300781 3033.070312 879.949219 3027.679688 C 879.613281 3027.148438 879.234375 3026.648438 878.816406 3026.191406 C 878.773438 3026.140625 878.714844 3026.078125 878.648438 3026.019531 Z M 1060.199219 3276.519531 C 1060.199219 3276.519531 1060.421875 3280.449219 1061.699219 3286.558594 C 1062.570312 3290.691406 1063.910156 3295.761719 1066 3301.261719 C 1066.980469 3303.820312 1068.128906 3306.449219 1069.480469 3309.109375 C 1070.75 3311.601562 1072.191406 3314.109375 1073.851562 3316.550781 C 1075.128906 3318.429688 1076.53125 3320.269531 1078.078125 3322.039062 C 1080.320312 3324.589844 1082.828125 3327 1085.589844 3329.238281 C 1088.21875 3331.371094 1091.050781 3333.339844 1094.140625 3335.070312 C 1098.441406 3337.480469 1103.128906 3339.410156 1108.320312 3340.820312 C 1108.441406 3340.871094 1108.570312 3340.808594 1108.609375 3340.691406 C 1108.660156 3340.570312 1108.601562 3340.441406 1108.480469 3340.390625 C 1103.78125 3338.109375 1099.710938 3335.359375 1095.980469 3332.351562 C 1093.378906 3330.261719 1091.03125 3328.039062 1088.820312 3325.730469 C 1086.929688 3323.738281 1085.210938 3321.679688 1083.550781 3319.609375 C 1081.828125 3317.480469 1080.238281 3315.308594 1078.71875 3313.171875 C 1077.121094 3310.898438 1075.589844 3308.671875 1074.210938 3306.441406 C 1072.710938 3304.03125 1071.351562 3301.679688 1070.101562 3299.378906 C 1063.308594 3286.859375 1060.660156 3276.449219 1060.660156 3276.449219 C 1060.640625 3276.328125 1060.519531 3276.238281 1060.390625 3276.261719 C 1060.269531 3276.28125 1060.179688 3276.398438 1060.199219 3276.519531 Z M 1215.21875 3276.449219 C 1215.21875 3276.449219 1212.570312 3286.859375 1205.78125 3299.378906 C 1204.53125 3301.679688 1203.171875 3304.03125 1201.671875 3306.441406 C 1200.289062 3308.671875 1198.761719 3310.898438 1197.160156 3313.160156 C 1195.640625 3315.308594 1194.050781 3317.480469 1192.328125 3319.609375 C 1190.671875 3321.679688 1188.960938 3323.738281 1187.058594 3325.730469 C 1184.859375 3328.03125 1182.5 3330.261719 1179.898438 3332.351562 C 1176.171875 3335.359375 1172.101562 3338.109375 1167.398438 3340.390625 C 1167.28125 3340.441406 1167.21875 3340.570312 1167.269531 3340.691406 C 1167.308594 3340.808594 1167.441406 3340.871094 1167.558594 3340.820312 C 1172.75 3339.410156 1177.441406 3337.480469 1181.738281 3335.070312 C 1184.828125 3333.339844 1187.660156 3331.371094 1190.289062 3329.238281 C 1193.050781 3327 1195.558594 3324.589844 1197.800781 3322.03125 C 1199.351562 3320.269531 1200.761719 3318.429688 1202.03125 3316.550781 C 1203.691406 3314.109375 1205.128906 3311.601562 1206.398438 3309.109375 C 1207.75 3306.449219 1208.898438 3303.820312 1209.878906 3301.261719 C 1211.96875 3295.761719 1213.308594 3290.691406 1214.179688 3286.558594 C 1215.460938 3280.449219 1215.679688 3276.519531 1215.679688 3276.519531 C 1215.699219 3276.398438 1215.609375 3276.28125 1215.488281 3276.261719 C 1215.359375 3276.238281 1215.238281 3276.328125 1215.21875 3276.449219 Z M 978.492188 3314.5 C 949.4375 3306.589844 883.542969 3290.980469 827.289062 3294.601562 C 795.679688 3296.648438 763.945312 3293.960938 733.128906 3286.621094 C 698.402344 3278.328125 651.128906 3270.199219 605.566406 3272.519531 C 573.246094 3274.179688 540.90625 3269.609375 510.308594 3259.058594 C 440.289062 3234.898438 330.382812 3189.660156 324.125 3141.960938 C 323.914062 3140.339844 323.664062 3138.71875 323.371094 3137.121094 C 321.195312 3122.871094 298.988281 2976.109375 429.222656 2976.109375 C 506.332031 2976.109375 752.355469 2995.691406 875.808594 3026.148438 C 877.058594 3026.460938 878.128906 3027.269531 878.773438 3028.390625 C 881.878906 3033.851562 893.335938 3054.859375 901.398438 3078.898438 C 905.296875 3090.539062 908.417969 3102.878906 909.3125 3114.519531 C 909.492188 3116.820312 909.953125 3119.089844 910.664062 3121.28125 C 911.382812 3123.46875 912.367188 3125.570312 913.589844 3127.539062 C 917.230469 3133.609375 923.011719 3144.320312 927.945312 3157.738281 C 930.351562 3164.289062 932.550781 3171.46875 934.210938 3179.101562 C 935.730469 3186.101562 936.792969 3193.46875 937.105469 3201.050781 C 937.222656 3203.898438 937.234375 3206.769531 937.128906 3209.671875 C 918.355469 3208.679688 900.078125 3203.828125 884.128906 3197.890625 C 854.21875 3186.75 832.554688 3171.75 831.515625 3171.019531 C 814.339844 3158.300781 797.734375 3146.859375 781.632812 3136.679688 C 763.390625 3125.140625 745.847656 3115.148438 728.992188 3106.589844 C 713.65625 3098.800781 698.886719 3092.191406 684.742188 3086.578125 C 659.546875 3076.578125 636.304688 3069.738281 615.105469 3065.238281 C 575.738281 3056.871094 543.425781 3056.589844 518.492188 3059.410156 C 477.660156 3064.03125 456.652344 3077.058594 456.652344 3077.058594 C 456.542969 3077.121094 456.507812 3077.261719 456.574219 3077.371094 C 456.640625 3077.480469 456.78125 3077.519531 456.890625 3077.449219 C 456.890625 3077.449219 478.097656 3065.199219 518.71875 3061.679688 C 543.441406 3059.539062 575.34375 3060.691406 614.105469 3069.730469 C 634.964844 3074.589844 657.796875 3081.761719 682.605469 3091.890625 C 696.550781 3097.589844 711.105469 3104.230469 726.3125 3111.890625 C 743.0625 3120.320312 760.59375 3129.980469 778.878906 3141.121094 C 795.058594 3150.980469 811.863281 3161.921875 829.214844 3174.210938 L 829.238281 3174.21875 C 829.257812 3174.230469 851.953125 3189.378906 883.359375 3200.050781 C 899.597656 3205.558594 918.164062 3209.871094 937.105469 3210.28125 C 936.773438 3218.019531 935.574219 3225.921875 933.15625 3233.808594 C 932.1875 3236.988281 931.855469 3240.308594 932.179688 3243.570312 C 932.503906 3246.808594 933.441406 3249.980469 935.011719 3252.910156 C 941.027344 3263.960938 952.0625 3283.171875 963.90625 3298.5 C 968.734375 3304.75 973.699219 3310.351562 978.496094 3314.5 Z M 1375.550781 3033.300781 C 1375.730469 3032.878906 1376.101562 3032.578125 1376.550781 3032.488281 C 1420.339844 3024.070312 1859.941406 2941.960938 1908.46875 3024.648438 C 1908.46875 3024.648438 1924.230469 3043.738281 1933.449219 3070.089844 C 1944.601562 3101.75 1936.191406 3137 1911.941406 3160.199219 C 1867.78125 3202.28125 1756.398438 3288.949219 1597.328125 3278 C 1591.671875 3277.589844 1585.988281 3278.550781 1580.78125 3280.800781 C 1566.910156 3286.691406 1530.210938 3297.789062 1451.128906 3297.089844 C 1451.128906 3297.089844 1368.308594 3292.359375 1334.261719 3304.660156 C 1334.261719 3304.660156 1309.460938 3308.609375 1290.738281 3313.300781 C 1295.640625 3309.21875 1300.699219 3304.070312 1305.671875 3298.410156 C 1319.671875 3282.460938 1332.929688 3262.460938 1340 3251.289062 L 1340.011719 3251.28125 C 1341.820312 3248.378906 1343.050781 3245.199219 1343.691406 3241.898438 C 1344.339844 3238.578125 1344.371094 3235.148438 1343.78125 3231.761719 C 1341.328125 3217.941406 1340.589844 3205.128906 1340.601562 3193.910156 C 1340.609375 3177.25 1342.421875 3164.058594 1343.980469 3156.148438 C 1344.429688 3153.890625 1345.078125 3151.640625 1345.921875 3149.480469 C 1346.75 3147.308594 1347.769531 3145.199219 1348.96875 3143.199219 L 1348.96875 3143.191406 C 1358.761719 3126.488281 1364.941406 3108.460938 1368.710938 3091.871094 C 1374.261719 3067.46875 1374.691406 3046.300781 1374.621094 3037.5 L 1374.621094 3037.488281 C 1374.589844 3036.390625 1375.191406 3034.359375 1375.550781 3033.300781 Z M 888.632812 2436.519531 C 888.632812 2436.519531 908.632812 2550.878906 923.578125 2659.070312 C 927.898438 2690.351562 931.816406 2721.101562 934.691406 2748.429688 C 937.09375 2771.300781 938.792969 2791.769531 939.34375 2808.121094 C 939.671875 2817.410156 940.679688 2826.648438 942.363281 2835.761719 C 944.046875 2844.878906 946.410156 2853.871094 949.421875 2862.660156 C 954.605469 2877.710938 960.417969 2899.71875 964.039062 2928.96875 C 966.449219 2948.441406 967.917969 2971.121094 967.496094 2997.089844 L 967.496094 2997.101562 C 967.371094 3006.371094 968.167969 3015.609375 969.875 3024.691406 C 971.578125 3033.738281 974.183594 3042.628906 977.660156 3051.21875 C 983.597656 3065.859375 991.550781 3083.660156 1000.519531 3098.851562 C 1007.371094 3110.449219 1014.820312 3120.53125 1022.359375 3126.601562 C 1023.800781 3128.191406 1045.96875 3152.929688 1059.96875 3178.148438 C 1068.171875 3192.921875 1073.589844 3207.851562 1070.308594 3218.390625 C 1070.269531 3218.511719 1070.339844 3218.640625 1070.460938 3218.679688 C 1070.578125 3218.71875 1070.710938 3218.660156 1070.75 3218.539062 C 1074.300781 3207.910156 1069.179688 3192.648438 1061.160156 3177.511719 C 1047.101562 3150.96875 1024.191406 3124.820312 1024.191406 3124.820312 L 1024.121094 3124.738281 L 1024.039062 3124.679688 C 1016.800781 3118.648438 1009.769531 3108.671875 1003.289062 3097.238281 C 994.675781 3082.058594 987.074219 3064.320312 981.433594 3049.71875 C 978.183594 3041.351562 975.789062 3032.699219 974.261719 3023.890625 C 972.734375 3015.101562 972.082031 3006.160156 972.324219 2997.199219 C 973.042969 2970.949219 971.867188 2948.011719 969.59375 2928.308594 C 966.152344 2898.5 960.257812 2876.078125 955.0625 2860.738281 L 955.0625 2860.730469 C 952.132812 2852.21875 949.84375 2843.511719 948.183594 2834.679688 C 946.523438 2825.851562 945.496094 2816.898438 945.136719 2807.898438 C 944.453125 2791.449219 942.632812 2770.851562 939.984375 2747.851562 C 936.832031 2720.488281 932.554688 2689.730469 927.773438 2658.460938 C 911.261719 2550.449219 889.085938 2436.441406 889.085938 2436.441406 C 889.0625 2436.320312 888.941406 2436.230469 888.816406 2436.261719 C 888.691406 2436.28125 888.609375 2436.398438 888.632812 2436.519531 Z M 1799.78125 3082.769531 C 1799.78125 3082.769531 1758.351562 3062.128906 1684.648438 3068.011719 C 1662 3069.808594 1636.308594 3074.140625 1607.878906 3082.390625 C 1593.761719 3086.488281 1578.96875 3091.558594 1563.558594 3097.800781 C 1554.25 3101.570312 1544.710938 3105.769531 1534.960938 3110.460938 C 1518.429688 3118.421875 1501.289062 3127.730469 1483.570312 3138.550781 C 1467.808594 3148.160156 1451.640625 3159.011719 1435 3171.121094 C 1433.761719 3171.941406 1409.921875 3187.539062 1380.929688 3197.179688 C 1368.300781 3201.378906 1354.699219 3204.460938 1341.550781 3204.679688 C 1341.421875 3204.679688 1341.320312 3204.78125 1341.320312 3204.910156 C 1341.320312 3205.039062 1341.421875 3205.140625 1341.550781 3205.140625 C 1354.800781 3205.359375 1368.609375 3202.730469 1381.46875 3198.898438 C 1411.910156 3189.839844 1437.019531 3174.140625 1437.019531 3174.140625 L 1437.058594 3174.121094 C 1453.921875 3162.460938 1470.308594 3152.140625 1486.160156 3142.890625 C 1503.929688 3132.511719 1521.058594 3123.570312 1537.5 3115.789062 C 1552.289062 3108.808594 1566.511719 3102.769531 1580.179688 3097.601562 C 1604.140625 3088.550781 1626.390625 3082.171875 1646.828125 3077.859375 C 1683.808594 3070.058594 1714.839844 3068.96875 1739.101562 3070.660156 C 1778.140625 3073.390625 1799.589844 3083.191406 1799.589844 3083.191406 C 1799.699219 3083.238281 1799.839844 3083.191406 1799.890625 3083.078125 C 1799.949219 3082.96875 1799.898438 3082.828125 1799.78125 3082.769531 Z M 1367.761719 2418.289062 C 1367.761719 2418.289062 1347.441406 2507.488281 1333.640625 2594.25 C 1326.578125 2638.648438 1321.28125 2682.421875 1321.089844 2713.300781 L 1321.089844 2713.308594 C 1321.101562 2717.640625 1320.808594 2721.960938 1320.21875 2726.230469 C 1319.628906 2730.5 1318.75 2734.730469 1317.578125 2738.890625 L 1317.570312 2738.898438 C 1313.078125 2755.238281 1305.660156 2784.28125 1301.570312 2813.070312 C 1299 2831.148438 1297.769531 2849.140625 1299.261719 2863.839844 C 1299.238281 2867.460938 1298.828125 2929.679688 1295.019531 2986.03125 C 1292.761719 3019.328125 1289.378906 3050.578125 1283.941406 3066.339844 L 1283.898438 3066.460938 L 1283.878906 3066.589844 C 1283.878906 3066.589844 1280.109375 3086.121094 1270.21875 3104.039062 C 1265.960938 3111.761719 1260.558594 3119.179688 1253.808594 3124.589844 C 1252.699219 3125.378906 1227.378906 3143.679688 1211.921875 3167.300781 C 1204.238281 3179.039062 1198.988281 3192.089844 1200.351562 3204.929688 C 1200.359375 3205.058594 1200.480469 3205.148438 1200.601562 3205.140625 C 1200.730469 3205.128906 1200.820312 3205.019531 1200.808594 3204.890625 C 1199.730469 3192.191406 1205.179688 3179.441406 1212.988281 3168.011719 C 1229.078125 3144.449219 1255.210938 3126.53125 1255.210938 3126.53125 L 1255.238281 3126.511719 C 1262.390625 3121.011719 1268.171875 3113.410156 1272.738281 3105.460938 C 1282.710938 3088.160156 1286.980469 3069.238281 1287.371094 3067.429688 C 1293.089844 3051.519531 1297.121094 3020.011719 1299.808594 2986.390625 C 1304.441406 2928.199219 1305.179688 2863.71875 1305.179688 2863.71875 L 1305.179688 2863.558594 L 1305.171875 2863.390625 C 1303.691406 2849.070312 1304.96875 2831.539062 1307.410156 2813.890625 C 1311.359375 2785.359375 1318.441406 2756.519531 1322.78125 2740.320312 C 1323.96875 2735.921875 1324.859375 2731.441406 1325.441406 2726.921875 C 1326.011719 2722.398438 1326.269531 2717.839844 1326.210938 2713.28125 C 1325.980469 2682.589844 1330.789062 2639.03125 1337.140625 2594.78125 C 1349.609375 2507.878906 1368.210938 2418.390625 1368.210938 2418.390625 C 1368.230469 2418.261719 1368.160156 2418.140625 1368.03125 2418.109375 C 1367.910156 2418.089844 1367.789062 2418.160156 1367.761719 2418.289062 Z M 1063.660156 2155.761719 C 1063.660156 2155.761719 1074.058594 2175.339844 1092.589844 2190.261719 C 1099.53125 2195.839844 1107.609375 2200.738281 1116.640625 2203.75 C 1122.421875 2205.679688 1128.589844 2206.820312 1135.089844 2206.851562 C 1139.890625 2206.859375 1144.878906 2206.261719 1149.988281 2204.898438 C 1156.53125 2203.160156 1163.300781 2200.179688 1170.21875 2195.730469 C 1175.800781 2192.140625 1181.46875 2187.589844 1187.199219 2181.898438 C 1193.96875 2175.171875 1200.78125 2166.859375 1207.691406 2156.761719 C 1207.761719 2156.660156 1207.738281 2156.511719 1207.640625 2156.441406 C 1207.539062 2156.359375 1207.398438 2156.378906 1207.320312 2156.488281 C 1199.640625 2165.839844 1192.171875 2173.371094 1184.980469 2179.480469 C 1179.050781 2184.511719 1173.320312 2188.511719 1167.761719 2191.640625 C 1162.289062 2194.71875 1156.988281 2196.898438 1151.878906 2198.410156 C 1146.039062 2200.128906 1140.449219 2200.878906 1135.078125 2200.910156 C 1127.640625 2200.960938 1120.648438 2199.601562 1114.148438 2197.25 C 1107.148438 2194.71875 1100.730469 2191.140625 1094.96875 2187.101562 C 1075.851562 2173.710938 1064.058594 2155.519531 1064.058594 2155.519531 C 1063.988281 2155.421875 1063.851562 2155.378906 1063.738281 2155.441406 C 1063.628906 2155.511719 1063.601562 2155.648438 1063.660156 2155.761719 "/>
<path fill-rule="evenodd" fill="rgb(0%, 0%, 0%)" fill-opacity="1" d="M 3448.929688 4597.734375 C 3450.671875 4597.90625 3452.421875 4597.671875 3454.058594 4597.046875 C 3455.011719 4596.742188 3455.941406 4596.363281 3456.859375 4595.96875 C 3466.101562 4591.984375 3474.511719 4586.226562 3479.460938 4582.503906 C 3480.191406 4581.957031 3481.058594 4581.703125 3481.929688 4581.660156 C 3482.820312 4581.617188 3483.699219 4581.875 3484.488281 4582.351562 C 3485.28125 4582.835938 3485.859375 4583.5625 3486.238281 4584.371094 C 3486.621094 4585.191406 3486.710938 4586.121094 3486.570312 4587.003906 C 3485.96875 4591.160156 3485.261719 4597.332031 3484.621094 4604.910156 C 3484.160156 4610.265625 3483.800781 4616.324219 3483.53125 4622.871094 C 3483.351562 4627.445312 3483.210938 4632.261719 3483.171875 4637.246094 C 3483.101562 4644.167969 3483.191406 4651.410156 3483.679688 4658.808594 C 3484.089844 4665.105469 3484.738281 4671.492188 3485.738281 4677.894531 C 3486.890625 4685.277344 3488.460938 4692.640625 3490.640625 4699.835938 C 3492.78125 4699.976562 3494.839844 4700.957031 3496.320312 4702.699219 C 3507.289062 4715.789062 3536.890625 4739.050781 3555.5 4642.4375 C 3555.5 4642.4375 3570.679688 4685.300781 3580.5 4618.328125 C 3580.5 4618.328125 3625.128906 4565.210938 3661.460938 4549.0625 C 3664.910156 4547.554688 3668.171875 4545.636719 3671.160156 4543.351562 C 3686.308594 4531.210938 3732.441406 4489.5625 3765.410156 4409.769531 C 3804.03125 4316.308594 4104.109375 4043.722656 4128.46875 3932.851562 C 4130.378906 3924.199219 4136.351562 3917.011719 4144.488281 3913.519531 C 4152.640625 3910.039062 4161.960938 3910.699219 4169.539062 3915.289062 C 4170.871094 3916.078125 4172.191406 3917.019531 4173.511719 3918.101562 C 4175.488281 3919.699219 4177.199219 3921.601562 4178.578125 3923.738281 C 4192.71875 3945.570312 4322.589844 4148.253906 4347.019531 4214.851562 C 4351.390625 4226.773438 4357.261719 4238.09375 4364.46875 4248.542969 C 4379.730469 4270.648438 4404.730469 4306.125 4423.320312 4328.890625 C 4432.019531 4339.5 4438.78125 4351.566406 4443.269531 4364.527344 C 4457.808594 4406.199219 4498.851562 4506.695312 4587.929688 4618.328125 C 4587.929688 4618.328125 4637.859375 4693.621094 4648.539062 4758.355469 C 4650.769531 4771.792969 4650.109375 4785.554688 4646.609375 4798.71875 C 4644.011719 4808.433594 4643.480469 4824.421875 4660.550781 4838.261719 C 4660.550781 4838.261719 4796.898438 4871.550781 4771.699219 4804.953125 C 4771.699219 4804.953125 4770.21875 4788.761719 4713.960938 4719.164062 C 4713.679688 4718.8125 4713.359375 4718.496094 4713.011719 4718.210938 C 4709.808594 4714.988281 4698.671875 4700.242188 4681.300781 4642.4375 C 4660.550781 4573.394531 4620.539062 4353.285156 4539.03125 4258.1875 C 4539.03125 4258.1875 4371.679688 3941.261719 4370.761719 3813.011719 C 4370.539062 3785.730469 4364.761719 3758.78125 4353.769531 3733.800781 C 4328.808594 3676.769531 4275.539062 3593.328125 4172.96875 3570.53125 C 4172.96875 3570.53125 3814.320312 3500.46875 3765.410156 3462.140625 C 3716.511719 3423.808594 3667.601562 3469.761719 3716.511719 3247.449219 L 3704.371094 3308.171875 C 3700.480469 3313.75 3695.089844 3322.019531 3689.839844 3331.871094 C 3686.199219 3338.71875 3682.640625 3346.339844 3679.660156 3354.351562 C 3676.839844 3361.921875 3674.609375 3369.851562 3673.339844 3377.839844 C 3672.488281 3383.160156 3672.039062 3388.5 3672.230469 3393.800781 C 3672.390625 3398.21875 3672.929688 3402.601562 3674.03125 3406.921875 C 3675.609375 3413.148438 3678.261719 3419.21875 3682.300781 3425.039062 C 3687.949219 3433.171875 3696.171875 3440.789062 3707.808594 3447.511719 C 3707.921875 3447.570312 3707.96875 3447.71875 3707.910156 3447.828125 C 3707.851562 3447.949219 3707.710938 3447.988281 3707.589844 3447.941406 C 3692.011719 3440.738281 3681.628906 3431.640625 3675.160156 3421.449219 C 3669.730469 3412.898438 3667.03125 3403.589844 3666.359375 3394.109375 C 3665.949219 3388.390625 3666.300781 3382.589844 3667.269531 3376.851562 C 3668.691406 3368.460938 3671.410156 3360.191406 3674.769531 3352.378906 C 3678.238281 3344.328125 3682.441406 3336.78125 3686.699219 3330.039062 C 3693.480469 3319.328125 3700.390625 3310.730469 3704.828125 3305.550781 C 3707.839844 3288.570312 3711.699219 3269.308594 3716.511719 3247.449219 C 3716.511719 3247.449219 3725.550781 3166.109375 3733.980469 3101.050781 C 3735.179688 3091.871094 3735.140625 3082.570312 3733.851562 3073.410156 C 3728.800781 3038.300781 3714.109375 2945.039062 3692.800781 2885.839844 C 3692.800781 2885.839844 3650.640625 2744.070312 3667.648438 2690.519531 C 3670.511719 2681.511719 3672.148438 2672.160156 3672.519531 2662.710938 C 3673.710938 2632.921875 3674.628906 2576.78125 3666.121094 2565.941406 C 3666.121094 2565.941406 3655.660156 2553.519531 3649.449219 2565.941406 C 3649.449219 2565.941406 3644.871094 2474.53125 3595.941406 2506.960938 C 3586.078125 2513.480469 3579.589844 2524 3578.171875 2535.730469 C 3575.789062 2555.179688 3573.441406 2589.539062 3580.5 2620.578125 C 3580.5 2620.578125 3538 2565.710938 3535.421875 2594.640625 C 3535.261719 2596.328125 3535.441406 2598.039062 3535.941406 2599.660156 C 3540.398438 2614.121094 3567.558594 2700.898438 3585.019531 2731.71875 C 3589.738281 2740.019531 3592.839844 2749.148438 3594.140625 2758.621094 C 3602.070312 2817.25 3626.449219 3007.96875 3622.46875 3107.46875 C 3622.46875 3107.46875 3627.929688 3247.320312 3591.710938 3301.839844 C 3591.710938 3301.839844 3554.558594 3371.769531 3567.53125 3444.058594 C 3567.53125 3444.058594 3567.5 3479.511719 3542.28125 3481.140625 C 3542.28125 3481.140625 3466.25 3433.859375 3348.210938 3462.140625 C 3348.210938 3462.140625 3088.539062 3558.410156 3318.109375 3728.738281 C 3318.109375 3728.738281 3286.539062 3730.238281 3302.328125 3770.929688 C 3318.109375 3811.628906 3399.300781 3810.761719 3415.75 3790.839844 C 3432.199219 3770.929688 3427.011719 3755.109375 3413.160156 3738.03125 C 3413.160156 3738.03125 3498.011719 3727.378906 3491.949219 3682.609375 C 3491.949219 3682.609375 3512.730469 3668.761719 3517.058594 3682.609375 C 3517.058594 3682.609375 3514.230469 3741.628906 3535.300781 3814.761719 C 3535.300781 3814.761719 3529.101562 3885.421875 3567.53125 4001.941406 C 3567.53125 4001.941406 3582.410156 4075.078125 3567.53125 4163.089844 C 3567.53125 4163.089844 3517.058594 4332.914062 3517.058594 4409.769531 C 3517.058594 4486.621094 3470.839844 4559.757812 3452.25 4573.394531 C 3452.25 4573.394531 3429.96875 4596.234375 3448.929688 4597.734375 Z M 3452.671875 4599.363281 C 3451.441406 4599.667969 3450.359375 4600.394531 3449.609375 4601.414062 C 3429.398438 4628.621094 3295.671875 4800.023438 3130.449219 4804.953125 C 3130.449219 4804.953125 3108.128906 4830.851562 3157.238281 4830.851562 C 3157.238281 4830.851562 3286.648438 4830.015625 3342.851562 4818.628906 C 3346.378906 4817.863281 3350.011719 4817.730469 3353.589844 4818.242188 C 3373.441406 4820.871094 3441.179688 4827.15625 3435.839844 4789.773438 C 3435.839844 4789.773438 3417.5 4748.585938 3485.449219 4701.273438 C 3486.679688 4700.421875 3488.058594 4699.953125 3489.460938 4699.839844 C 3486.449219 4692.53125 3484.070312 4684.976562 3482.269531 4677.34375 C 3479.859375 4667.175781 3478.441406 4656.925781 3477.710938 4647.085938 C 3477.328125 4642.054688 3477.148438 4637.136719 3477.148438 4632.394531 C 3477.140625 4629.03125 3477.230469 4625.757812 3477.390625 4622.597656 C 3477.730469 4615.921875 3478.339844 4609.757812 3479.039062 4604.320312 C 3480.019531 4596.636719 3481.210938 4590.414062 3482.058594 4586.199219 L 3482.089844 4586.03125 C 3482.089844 4586.03125 3481.859375 4585.957031 3481.859375 4585.960938 L 3481.851562 4585.960938 C 3476.480469 4589.371094 3467.410156 4594.644531 3457.601562 4597.914062 C 3455.96875 4598.460938 3454.328125 4598.945312 3452.671875 4599.363281 Z M 3581.859375 4435.902344 C 3671.109375 4374.179688 3877.96875 3874.449219 3877.96875 3874.449219 C 3868.238281 3820.660156 3704.511719 3842.179688 3704.511719 3842.179688 C 3699.128906 3865.039062 3660.140625 3874.449219 3660.140625 3874.449219 C 3672.011719 3977.179688 3666.859375 4094.371094 3662.96875 4152.464844 C 3661.390625 4175.519531 3656.449219 4198.21875 3648.300781 4219.839844 C 3609.171875 4324.472656 3577.519531 4438.601562 3577.519531 4438.601562 C 3577.121094 4440.605469 3575.679688 4454.144531 3574.671875 4463.605469 C 3573.539062 4474.152344 3573.660156 4485 3575.890625 4494.261719 C 3577.121094 4499.058594 3578.300781 4504.128906 3579.460938 4509.417969 C 3580.191406 4512.710938 3580.898438 4516.089844 3581.601562 4519.542969 C 3582.828125 4525.671875 3583.96875 4532.042969 3584.839844 4538.636719 C 3585.671875 4544.890625 3586.289062 4551.320312 3586.589844 4557.929688 C 3587.199219 4571.671875 3586.449219 4586.09375 3583.179688 4600.976562 C 3583.140625 4601.101562 3583.21875 4601.234375 3583.351562 4601.265625 C 3583.46875 4601.300781 3583.601562 4601.222656 3583.640625 4601.097656 C 3587.050781 4590.1875 3589.121094 4579.421875 3590.109375 4568.894531 C 3590.820312 4561.390625 3590.980469 4554.035156 3590.71875 4546.871094 C 3590.378906 4537.332031 3589.339844 4528.148438 3587.808594 4519.472656 C 3587.171875 4515.78125 3586.398438 4512.183594 3585.589844 4508.691406 C 3584.28125 4503.109375 3582.800781 4497.804688 3581.359375 4492.78125 C 3578.769531 4484.152344 3578.28125 4473.921875 3578.679688 4463.902344 C 3579.089844 4453.722656 3580.460938 4443.769531 3581.859375 4435.902344 Z M 3422.96875 3673.140625 C 3422.96875 3673.140625 3418.410156 3677.960938 3415.449219 3684.011719 C 3414.078125 3686.828125 3413.109375 3689.890625 3412.980469 3692.859375 C 3412.761719 3697.898438 3415 3702.621094 3421.890625 3705.730469 C 3424.378906 3706.820312 3427.03125 3707.449219 3429.710938 3707.640625 C 3432.410156 3707.828125 3435.140625 3707.519531 3437.800781 3706.78125 L 3437.808594 3706.769531 C 3440.441406 3705.980469 3443.929688 3704.941406 3447.839844 3703.519531 C 3450.910156 3702.410156 3454.25 3701.089844 3457.628906 3699.558594 C 3461.441406 3697.851562 3465.300781 3695.878906 3468.949219 3693.730469 C 3475 3690.179688 3480.488281 3686.171875 3484.238281 3681.921875 C 3490.230469 3675.140625 3492.078125 3667.871094 3484.828125 3660.96875 C 3484.738281 3660.878906 3484.589844 3660.871094 3484.488281 3660.960938 C 3484.398438 3661.050781 3484.390625 3661.199219 3484.480469 3661.289062 C 3490.019531 3668.128906 3487.761719 3674.21875 3481.839844 3679.550781 C 3477.898438 3683.089844 3472.390625 3686.230469 3466.46875 3689.089844 C 3462.800781 3690.859375 3458.960938 3692.488281 3455.25 3694.011719 C 3451.910156 3695.378906 3448.671875 3696.648438 3445.710938 3697.789062 C 3441.910156 3699.25 3438.589844 3700.519531 3436.070312 3701.398438 C 3434.078125 3702.101562 3431.980469 3702.480469 3429.878906 3702.488281 C 3427.738281 3702.5 3425.601562 3702.199219 3423.539062 3701.488281 C 3418.289062 3699.738281 3416.28125 3696.511719 3416.03125 3692.820312 C 3415.460938 3684.039062 3423.328125 3673.441406 3423.328125 3673.441406 C 3423.421875 3673.339844 3423.398438 3673.191406 3423.300781 3673.109375 C 3423.199219 3673.019531 3423.050781 3673.039062 3422.96875 3673.140625 "/>
</svg>
